<?xml version="1.0" standalone="no"?>
<!DOCTYPE svg PUBLIC "-//W3C//DTD SVG 20010904//EN"
 "http://www.w3.org/TR/2001/REC-SVG-20010904/DTD/svg10.dtd">
<svg version="1.0" xmlns="http://www.w3.org/2000/svg"
 width="360.000000pt" height="360.000000pt" viewBox="0 0 360.000000 360.000000"
 preserveAspectRatio="xMidYMid meet">

<g transform="translate(0.000000,360.000000) scale(0.100000,-0.100000)"
fill="#000000" stroke="none">
<path d="M2408 2903 c7 -3 16 -2 19 1 4 3 -2 6 -13 5 -11 0 -14 -3 -6 -6z"/>
<path d="M2338 2893 c6 -2 18 -2 25 0 6 3 1 5 -13 5 -14 0 -19 -2 -12 -5z"/>
<path d="M2270 2880 l-25 -8 28 -1 c15 -1 27 4 27 9 0 6 -1 10 -2 9 -2 -1 -14
-5 -28 -9z"/>
<path d="M2218 2863 c7 -3 16 -2 19 1 4 3 -2 6 -13 5 -11 0 -14 -3 -6 -6z"/>
<path d="M2160 2848 c0 -4 7 -8 15 -8 8 0 15 4 15 8 0 5 -7 9 -15 9 -8 0 -15
-4 -15 -9z"/>
<path d="M2130 2841 c-8 -6 -17 -8 -21 -5 -4 2 -10 0 -14 -6 -4 -6 -11 -8 -16
-5 -5 4 -9 1 -9 -4 0 -6 7 -11 15 -11 8 0 15 5 15 11 0 5 4 8 9 5 4 -3 17 1
27 9 21 16 17 20 -6 6z"/>
<path d="M2735 2838 c-2 -7 -6 -29 -8 -48 -3 -19 -19 -69 -37 -110 -70 -165
-118 -329 -167 -575 -26 -132 -26 -528 1 -635 24 -98 61 -201 99 -272 l30 -58
388 0 389 0 0 -23 c0 -29 -38 -174 -53 -206 l-12 -23 -408 1 c-224 1 -419 6
-432 11 -53 20 -162 210 -219 381 -60 177 -79 320 -72 544 7 258 32 407 106
638 23 71 44 135 46 142 11 27 -264 -65 -406 -136 -186 -93 -406 -276 -531
-442 -192 -254 -325 -587 -375 -937 -18 -130 -28 -155 -68 -180 -30 -18 -53
-19 -402 -21 l-369 -1 -12 23 c-15 32 -53 177 -53 206 l0 23 330 0 c213 0 330
4 330 10 0 5 7 52 16 102 46 273 175 598 332 838 104 158 286 352 435 462 37
28 67 55 67 59 0 5 3 8 8 6 10 -3 142 76 142 86 0 4 -9 3 -20 -3 -11 -6 -25
-8 -30 -5 -6 4 -7 -1 -3 -11 4 -11 3 -15 -5 -10 -6 3 -14 1 -17 -5 -4 -5 -13
-8 -21 -5 -8 3 -13 0 -11 -6 1 -6 -4 -13 -12 -16 -8 -2 -11 0 -7 6 3 6 2 13
-3 17 -6 3 -8 -3 -6 -15 2 -11 0 -21 -6 -21 -5 -1 -13 -2 -19 -3 -5 0 -11 -5
-12 -11 -3 -21 -32 -34 -48 -22 -13 10 -13 10 -2 -5 11 -14 10 -17 -7 -23 -12
-3 -21 -11 -21 -16 0 -5 -5 -9 -11 -9 -5 0 -8 4 -4 9 3 5 1 12 -5 16 -6 4 -8
10 -6 14 3 4 -1 8 -9 8 -13 0 -13 -3 1 -18 10 -11 12 -19 4 -24 -5 -3 -8 -11
-5 -16 4 -5 2 -9 -4 -9 -5 0 -23 -14 -40 -32 -24 -25 -29 -28 -27 -13 2 11 10
19 17 17 8 -2 11 0 7 4 -11 10 12 35 26 27 6 -3 8 -3 4 2 -4 4 -3 14 2 20 7 9
5 17 -7 26 -16 12 -17 12 -6 -2 11 -13 8 -20 -12 -39 -14 -13 -25 -19 -25 -13
0 6 7 16 15 23 11 9 12 16 5 25 -7 9 -6 16 5 25 11 9 12 16 5 25 -5 6 -8 14
-5 17 3 2 -2 5 -10 5 -13 0 -13 -2 0 -17 14 -15 14 -18 0 -30 -11 -9 -12 -16
-5 -25 7 -9 7 -15 1 -19 -5 -4 -14 2 -20 11 -6 10 -11 13 -11 7 0 -6 3 -14 7
-18 10 -10 11 -46 1 -52 -4 -3 -9 2 -9 10 -1 16 -4 28 -9 44 -1 4 -2 11 -1 15
1 5 -3 6 -9 2 -6 -3 -7 -12 -3 -18 13 -20 14 -55 3 -62 -7 -4 -10 0 -8 11 2
13 -3 19 -15 18 -10 -1 -16 3 -14 10 3 6 10 10 17 8 10 -2 11 0 2 11 -9 10 -9
17 1 27 10 12 9 12 -6 1 -9 -8 -15 -16 -12 -19 3 -3 0 -11 -5 -18 -6 -6 -9
-16 -8 -20 2 -5 -2 -10 -7 -11 -12 -3 -14 17 -4 32 9 14 7 45 -2 39 -5 -2 -5
-12 -2 -21 4 -11 3 -14 -6 -9 -6 4 -11 4 -10 -1 3 -20 -2 -27 -11 -13 -10 16
-10 15 -12 -58 -1 -25 -4 -30 -13 -22 -13 11 -14 34 -2 46 4 4 7 12 7 18 0 5
-7 1 -15 -10 -8 -10 -15 -14 -15 -7 0 6 7 19 16 27 8 9 10 16 4 16 -6 0 -13
-7 -16 -15 -4 -8 -10 -12 -16 -9 -5 3 -2 14 8 25 9 10 21 16 27 12 6 -3 7 -1
3 6 -6 9 -11 9 -21 1 -16 -14 -40 11 -24 27 6 6 5 10 -5 10 -16 0 -15 -19 2
-39 6 -8 8 -18 4 -22 -4 -4 -8 -12 -8 -17 -3 -22 -5 -23 -14 -9 -5 9 -5 19 1
26 6 8 3 16 -8 25 -15 11 -16 11 -6 -1 10 -11 10 -17 -3 -31 -17 -19 -45 -15
-40 4 1 7 1 9 -1 4 -3 -4 -9 -4 -14 -1 -6 3 -5 12 3 22 10 14 10 15 -2 5 -11
-10 -18 -9 -34 4 -12 10 -6 2 12 -18 18 -19 30 -38 26 -41 -3 -4 -19 8 -36 25
-16 18 -27 27 -24 20 4 -6 1 -15 -5 -18 -5 -4 -8 -13 -5 -21 3 -7 1 -16 -3
-19 -13 -8 -20 32 -8 44 8 8 6 16 -8 29 -11 9 -14 10 -7 2 19 -22 14 -35 -6
-17 -15 14 -19 14 -19 3 0 -8 5 -14 10 -13 14 3 19 -43 7 -58 -8 -9 -8 -15 0
-20 5 -3 10 -14 10 -23 0 -13 -4 -11 -17 7 -12 18 -13 28 -5 41 6 10 7 22 1
31 -7 11 -9 11 -9 1 0 -7 -4 -11 -9 -7 -6 3 -8 14 -6 25 2 11 -1 19 -8 17 -7
-1 -11 4 -9 11 1 6 -4 11 -10 10 -9 -2 -12 7 -11 26 3 32 -5 31 -12 -2 -2 -12
6 -29 20 -42 22 -21 23 -25 10 -43 -9 -14 -11 -25 -5 -32 6 -8 5 -18 -4 -31
-13 -17 -14 -15 -12 21 1 22 5 45 9 51 3 6 -3 20 -16 30 -22 19 -22 19 -5 -1
9 -11 14 -25 10 -31 -9 -13 -33 -12 -29 1 1 6 6 9 12 7 5 -2 2 5 -8 15 -13 16
-14 22 -4 33 10 12 9 12 -6 1 -13 -10 -14 -17 -7 -26 7 -8 7 -15 2 -19 -6 -3
-13 2 -16 11 -5 13 -9 14 -19 4 -7 -7 -12 -17 -12 -24 -1 -7 -7 -11 -15 -9
-10 3 -9 -3 4 -17 11 -12 15 -21 11 -21 -5 0 -4 -5 3 -12 14 -14 16 -32 2 -23
-5 3 -17 22 -26 41 -15 31 -15 37 -3 45 11 8 11 9 -3 7 -9 -2 -16 2 -15 7 1 6
6 9 10 7 5 -1 5 2 2 8 -4 6 -10 9 -13 6 -3 -3 -12 0 -21 7 -14 11 -15 10 -1
-7 15 -20 15 -23 -1 -43 -7 -7 -6 -13 0 -17 6 -4 8 -13 5 -20 -3 -8 -1 -17 5
-21 6 -3 11 -12 11 -18 -1 -7 -9 -2 -19 10 -13 15 -18 36 -17 63 3 41 -5 46
-12 7 -2 -12 -5 -28 -6 -35 -1 -7 -6 -11 -12 -10 -5 2 -7 8 -5 13 2 6 4 19 5
30 1 11 6 27 11 35 10 16 17 75 8 66 -3 -3 -7 -16 -7 -28 -2 -30 -15 -50 -27
-42 -6 4 -5 12 3 22 10 14 10 15 -2 5 -14 -13 -23 -44 -12 -40 4 1 8 -2 9 -8
1 -5 -6 -9 -15 -7 -15 2 -15 1 -2 -7 15 -10 13 -12 -12 -15 -7 -1 -11 -10 -10
-21 3 -16 1 -18 -9 -7 -10 9 -11 17 -2 30 8 14 7 22 -2 35 -11 15 -12 9 -11
-38 1 -30 -1 -61 -6 -68 -8 -12 -11 9 -10 68 1 22 -2 26 -8 15 -6 -8 -10 -13
-11 -10 -6 34 -8 43 -14 48 -4 4 -5 -1 -3 -10 1 -9 -1 -17 -7 -18 -5 -1 -16
-7 -24 -13 -12 -10 -14 -9 -8 5 3 9 -1 22 -8 28 -8 7 -12 17 -8 23 4 6 1 7 -6
3 -9 -6 -9 -12 2 -24 8 -10 12 -22 10 -29 -2 -6 1 -14 6 -18 6 -3 11 -12 11
-18 -1 -7 -9 -1 -20 12 -11 12 -18 27 -15 31 3 4 -3 14 -13 21 -15 12 -16 12
-4 -2 10 -13 10 -19 -2 -28 -12 -10 -15 -9 -15 6 0 25 -6 51 -14 59 -3 4 -4
-4 -1 -17 3 -13 6 -32 6 -41 -1 -10 3 -20 9 -23 5 -4 9 -11 9 -16 0 -16 -20 1
-31 25 -8 19 -9 20 -7 1 3 -29 -12 -66 -23 -59 -6 3 -6 10 -1 17 12 15 9 57
-6 82 -6 11 -12 15 -12 8 0 -6 4 -14 9 -17 5 -4 8 -13 7 -21 -2 -17 -16 -32
-17 -19 -2 23 -8 46 -14 52 -4 4 -5 -1 -3 -10 1 -9 -1 -17 -7 -17 -15 -1 -13
22 3 41 10 12 11 18 1 24 -7 4 -10 3 -6 -3 4 -6 1 -16 -7 -22 -15 -12 -16 -28
-3 -48 4 -6 3 -14 -2 -17 -5 -4 -11 0 -14 6 -3 7 -5 2 -4 -12 0 -14 4 -30 8
-35 4 -6 4 -17 0 -24 -6 -9 -11 -5 -16 16 -10 31 -9 46 0 83 5 18 2 15 -12
-10 -13 -23 -16 -39 -10 -48 14 -18 2 -25 -13 -7 -7 8 -10 20 -7 27 7 21 7 28
0 28 -5 0 -8 -22 -9 -50 0 -27 -3 -53 -7 -57 -7 -7 -11 22 -8 72 l1 30 -13
-25 c-8 -14 -10 -29 -5 -35 4 -5 8 -18 8 -30 0 -16 -3 -15 -15 9 -9 16 -13 37
-9 45 4 9 9 30 10 46 2 24 1 26 -5 10 -5 -11 -6 -27 -4 -35 3 -10 -1 -8 -11 4
-9 11 -16 15 -16 10 0 -6 4 -14 9 -19 12 -13 -6 -58 -19 -50 -5 3 -10 11 -10
16 0 6 4 8 9 4 10 -6 6 33 -4 43 -2 3 0 11 6 19 6 7 8 13 4 13 -4 0 -2 6 4 14
9 11 9 16 0 22 -7 4 -9 3 -5 -4 3 -6 2 -13 -4 -17 -6 -4 -8 -10 -5 -15 3 -5 1
-11 -4 -15 -6 -3 -7 -13 -4 -23 6 -15 5 -15 -10 -3 -13 10 -15 17 -6 27 6 8 8
14 4 14 -4 0 -1 8 6 18 13 15 12 16 -3 4 -10 -8 -16 -17 -15 -20 1 -4 -2 -8
-8 -9 -5 -2 -10 1 -10 6 0 5 -3 13 -7 17 -4 4 -2 14 5 23 11 14 10 14 -6 2
-13 -10 -15 -17 -6 -27 6 -8 8 -14 4 -14 -4 0 -2 -6 4 -14 7 -8 8 -17 3 -20
-8 -5 -34 36 -36 56 -2 19 -12 14 -12 -7 0 -13 4 -21 9 -18 5 3 7 0 5 -8 -3
-8 -10 -13 -16 -12 -6 2 -16 -6 -22 -17 -6 -11 -8 -20 -4 -20 3 0 2 -6 -3 -12
-5 -7 -9 -30 -7 -50 1 -21 -2 -35 -7 -33 -4 3 -6 -6 -3 -21 3 -14 1 -23 -4
-20 -5 3 -8 -8 -7 -24 1 -17 -1 -33 -6 -35 -4 -3 -6 -15 -4 -27 3 -12 1 -26
-3 -32 -10 -13 -9 -97 1 -113 4 -6 2 -15 -4 -19 -8 -5 -9 -3 -4 6 5 7 4 11 -1
7 -5 -3 -9 -62 -9 -131 0 -69 -2 -126 -5 -126 -3 0 -5 -16 -5 -35 0 -19 4 -35
10 -35 6 0 7 -3 0 -8 -5 -4 -10 -16 -10 -27 0 -11 5 -23 10 -27 6 -5 6 -8 -1
-8 -6 0 -10 -12 -8 -27 1 -16 2 -86 3 -156 1 -71 4 -126 9 -124 4 3 6 -33 4
-80 -3 -65 -1 -83 9 -78 9 6 11 -8 7 -61 -3 -38 -2 -60 2 -49 4 12 9 -9 13
-57 28 -334 247 -653 542 -792 44 -20 87 -41 95 -45 9 -5 31 -12 50 -16 19 -4
41 -11 50 -16 13 -7 126 -34 250 -59 25 -5 81 -12 125 -16 132 -10 155 -13
167 -20 6 -4 8 -3 5 3 -3 5 0 10 8 10 8 0 12 -4 9 -9 -3 -4 157 -8 356 -8 199
0 359 3 357 8 -3 4 14 7 36 8 23 0 74 4 112 8 39 4 80 7 93 7 15 -1 21 3 16
11 -4 6 -3 8 4 4 10 -6 141 10 172 21 8 4 20 7 27 9 7 1 45 12 85 25 40 13 76
22 81 21 4 -1 7 2 7 8 0 5 7 10 16 10 23 0 76 26 174 84 95 56 224 178 282
266 47 71 105 187 118 232 1 4 10 31 21 60 11 29 24 96 30 148 6 52 14 102 17
110 3 8 4 35 4 60 -2 33 0 41 8 30 7 -11 10 10 11 70 1 61 4 76 9 55 l8 -30 1
37 c0 20 -3 39 -8 43 -6 3 -6 17 -1 35 5 18 5 32 -1 36 -5 3 -6 10 -3 16 7 12
7 188 0 195 -3 3 -1 14 5 24 7 14 6 19 -3 19 -10 0 -10 2 1 9 11 7 11 9 0 14
-10 4 -10 6 -1 6 6 1 12 8 12 16 0 8 -6 15 -12 15 -9 0 -8 4 2 10 12 8 12 10
1 10 -11 0 -11 3 0 17 8 9 12 19 10 22 -15 24 -19 51 -8 51 8 0 9 3 1 8 -7 4
-10 37 -9 84 2 55 -1 76 -9 71 -6 -4 -5 1 3 11 11 13 12 19 2 29 -10 9 -11 8
-6 -8 6 -16 5 -17 -4 -5 -6 9 -6 19 -1 24 4 4 6 15 3 24 -4 9 -2 13 4 9 5 -3
10 0 10 8 0 11 -4 12 -14 4 -7 -6 -13 -8 -13 -3 0 4 -11 -3 -25 -16 -14 -13
-25 -20 -25 -16 0 5 -6 3 -14 -3 -10 -8 -16 -9 -21 -1 -4 6 -2 9 3 8 6 -2 10
2 10 7 0 6 -4 9 -10 7 -5 -1 -6 2 -3 8 4 6 10 9 13 6 11 -11 41 26 34 42 -3
10 6 4 21 -13 14 -16 27 -25 27 -20 1 6 3 18 5 28 2 9 -1 15 -6 11 -5 -3 -6
-11 -2 -17 4 -7 0 -6 -10 2 -18 15 -23 26 -7 16 6 -3 10 -3 11 2 4 45 3 63 -4
63 -4 0 -5 5 -2 10 3 6 1 10 -4 10 -13 0 -13 2 -2 -36 8 -28 7 -31 -13 -30
-11 1 -27 5 -33 9 -14 9 -18 -5 -6 -17 11 -11 12 -35 2 -42 -5 -3 -9 -2 -8 3
1 4 0 11 -1 16 -4 13 -7 27 -9 40 -1 8 -4 7 -11 -3 -13 -18 -3 35 11 62 5 9 9
23 9 30 -1 20 -19 -16 -34 -67 -13 -43 -12 -50 8 -46 5 1 4 -4 -3 -13 -8 -10
-9 -16 -1 -21 5 -3 10 -1 10 6 0 7 3 9 7 6 3 -4 -1 -15 -10 -24 -18 -21 -19
-33 -6 -50 7 -7 6 -14 -1 -18 -6 -4 -10 -3 -9 2 1 4 0 10 -1 13 -7 19 -7 41 1
46 5 3 6 11 2 17 -4 7 -8 14 -8 17 -1 13 -35 53 -35 41 0 -8 -2 -12 -5 -9 -3
3 -1 17 4 31 5 14 7 28 3 31 -11 11 -29 -58 -19 -72 7 -8 4 -18 -7 -31 -15
-16 -15 -19 -1 -31 9 -7 13 -15 10 -18 -3 -3 0 -11 6 -18 7 -8 6 -14 -2 -20
-7 -4 -9 -3 -5 4 3 6 2 13 -4 17 -6 4 -8 10 -5 15 3 4 -2 13 -10 20 -8 7 -13
16 -10 20 3 5 1 11 -5 15 -5 3 -10 12 -10 18 0 7 5 4 11 -6 10 -17 29 -15 29
4 0 6 -5 7 -10 4 -6 -4 -9 -1 -8 6 2 7 -6 13 -17 14 -21 0 -27 -22 -12 -42 5
-7 6 -13 2 -13 -5 0 0 -9 10 -20 10 -11 15 -20 10 -20 -4 0 -1 -8 6 -17 11
-16 11 -16 -1 -5 -8 7 -15 17 -15 23 0 5 -4 9 -10 8 -5 -1 -9 -6 -7 -12 2 -7
0 -9 -4 -5 -4 4 -14 2 -23 -4 -9 -7 -7 -1 5 12 18 22 22 39 14 55 -1 3 -3 8
-5 13 -7 26 -18 41 -27 36 -5 -3 -4 -12 3 -20 13 -16 -1 -39 -24 -39 -7 0 -12
-13 -11 -32 0 -18 -2 -30 -5 -27 -3 3 -6 18 -6 33 0 29 -33 76 -52 76 -7 0
-13 -3 -13 -7 0 -5 2 -7 4 -5 12 7 43 -37 41 -61 -1 -15 5 -36 14 -47 16 -20
16 -20 -5 -2 -15 12 -21 27 -19 47 3 39 -17 56 -37 32 -16 -19 -18 -49 -4 -72
7 -12 7 -13 -5 -2 -8 7 -14 22 -14 32 0 11 -4 19 -10 18 -5 -2 -9 -11 -9 -20
1 -10 -3 -15 -8 -12 -5 3 -7 9 -4 12 3 3 1 11 -6 19 -9 11 -8 13 3 11 8 -2 13
4 11 14 -3 20 14 33 24 17 4 -8 3 -9 -4 -5 -7 4 -12 3 -12 -3 0 -17 17 -21 29
-7 8 10 6 17 -7 30 -18 15 -20 15 -35 -2 -10 -10 -16 -21 -15 -23 2 -3 -12 10
-29 29 -39 42 -44 27 -7 -17 14 -17 23 -31 19 -31 -4 0 -2 -7 5 -15 9 -11 10
-18 1 -28 -6 -8 -7 -18 -3 -23 4 -5 -2 -1 -14 9 -11 9 -24 14 -28 10 -4 -5 -6
-3 -4 2 1 6 -1 11 -7 13 -5 1 -10 -2 -10 -7 0 -5 -3 -12 -7 -16 -5 -6 -3 25 2
33 2 1 3 5 4 10 1 4 4 12 8 17 3 6 -8 26 -24 45 -17 19 -28 28 -25 18 3 -9 -3
-24 -13 -33 -11 -10 -17 -21 -15 -25 3 -4 -2 -13 -10 -20 -12 -10 -13 -16 -4
-26 6 -8 15 -12 19 -9 10 6 7 -22 -3 -30 -4 -3 -5 -2 -2 2 3 3 0 12 -6 20 -10
11 -15 11 -28 1 -14 -12 -14 -11 -2 5 7 9 10 17 6 17 -5 0 0 9 11 21 20 22 20
26 -1 49 -8 8 -13 30 -13 48 1 18 -3 37 -9 43 -13 13 -8 -78 5 -94 14 -16 13
-29 -3 -47 -7 -8 -14 -18 -14 -22 -1 -5 -2 -10 -2 -13 -1 -3 -2 -9 -3 -14 0
-5 -4 -12 -8 -16 -3 -4 -5 0 -4 9 1 8 5 18 8 22 4 3 4 18 2 32 -3 18 -2 23 5
13 8 -13 18 -5 16 14 -1 14 -24 52 -25 41 0 -5 -6 -3 -14 3 -11 9 -13 6 -13
-14 0 -20 2 -23 12 -15 9 8 15 8 20 0 4 -6 1 -9 -6 -8 -8 2 -14 -9 -15 -29 -1
-18 -3 -36 -4 -40 -1 -5 -2 -12 -1 -16 1 -5 -3 -6 -9 -2 -7 4 -7 12 -2 18 7
11 9 46 2 65 -5 11 -8 26 -9 42 -1 13 -3 13 -12 0 -9 -13 -10 -13 -6 1 3 9 0
22 -6 28 -13 13 -19 43 -6 35 5 -3 7 -9 4 -14 -3 -4 2 -13 10 -20 17 -15 18
-10 6 24 -8 18 -6 28 5 37 13 10 12 15 -8 37 -13 14 -17 22 -10 18 6 -4 12 -3
12 1 0 5 -6 15 -12 22 -11 10 -10 12 2 9 10 -2 14 6 15 27 0 19 5 29 13 28 6
-2 12 1 12 5 0 4 -6 14 -12 21 -11 10 -10 12 1 9 7 -2 16 3 19 11 3 10 0 11
-9 5 -11 -6 -12 -5 -3 7 6 8 10 25 8 39 -3 19 -2 22 6 10 7 -11 10 -7 10 18 0
23 -4 31 -12 26 -7 -4 -8 -3 -4 5 4 6 2 18 -4 26 -7 9 -8 15 -2 15 5 0 14 -12
21 -27 13 -36 24 -144 11 -123 -5 9 -7 -7 -5 -45 2 -39 1 -51 -4 -35 -6 18 -8
9 -7 -31 1 -31 5 -54 10 -51 5 3 6 -1 1 -9 -7 -11 -5 -11 10 1 10 8 16 10 12
4 -3 -6 0 -11 8 -11 8 0 11 5 8 11 -4 6 0 5 8 -1 12 -10 18 -10 29 0 7 6 10 7
7 2 -3 -7 11 -11 38 -11 27 0 41 4 37 11 -3 5 1 4 9 -2 12 -10 18 -10 29 0 7
6 10 7 7 2 -3 -7 11 -11 38 -11 24 0 41 5 38 10 -4 5 0 6 8 0 19 -12 99 -12
92 0 -4 5 -1 6 8 0 21 -13 99 -12 91 0 -3 6 3 4 13 -4 17 -13 18 -13 10 0 -8
13 -7 13 10 0 11 -9 16 -10 11 -2 -4 6 -2 12 3 12 6 0 11 -6 11 -12 0 -10 3
-9 9 1 7 11 9 11 14 0 4 -11 6 -11 6 1 1 13 2 13 11 0 9 -13 10 -13 10 0 0 13
1 13 11 0 8 -12 9 -10 4 9 -5 17 -4 21 5 16 6 -4 10 -16 7 -26 -3 -10 -1 -22
4 -25 5 -3 7 -10 4 -15 -3 -5 1 -6 10 -2 13 5 14 7 3 14 -10 7 -10 9 2 9 12 0
12 2 2 9 -8 4 -12 14 -11 22 1 8 -1 22 -6 32 -4 10 -2 24 6 34 8 10 9 14 2 10
-6 -4 -14 -3 -17 2 -4 5 -2 12 4 16 6 4 7 12 3 18 -4 7 -8 18 -9 25 -2 8 -6
17 -9 20 -4 4 -5 -1 -3 -10 1 -9 -1 -17 -7 -17 -5 0 -9 12 -8 27 0 15 -1 21
-4 14 -2 -6 -9 -9 -14 -6 -6 3 -5 12 3 22 7 10 0 6 -14 -7 -17 -15 -24 -29
-20 -40 5 -14 3 -14 -11 -3 -9 8 -21 11 -27 7 -6 -4 -9 3 -7 17 1 13 -3 23
-11 23 -7 0 -17 7 -22 15 -5 8 -10 10 -10 4 0 -15 25 -36 33 -27 13 13 7 -13
-9 -35 -8 -12 -13 -26 -9 -31 3 -5 1 -12 -4 -15 -16 -10 -20 21 -5 42 11 17
11 22 0 31 -10 9 -13 7 -13 -6 0 -34 -3 -44 -11 -39 -11 7 -9 46 2 66 7 12 6
13 -4 3 -11 -10 -18 -9 -34 5 -17 13 -16 11 2 -10 18 -20 21 -28 10 -34 -21
-13 -40 -14 -35 -1 3 7 11 11 18 9 8 -2 4 7 -9 20 -12 14 -19 28 -15 33 5 4 2
5 -5 1 -11 -6 -10 -12 3 -26 11 -12 13 -20 5 -25 -6 -3 -9 -13 -8 -20 2 -8 -1
-14 -7 -14 -12 -1 -14 20 -3 35 5 7 2 16 -6 23 -10 8 -16 9 -21 1 -3 -6 -11
-8 -16 -4 -6 4 -5 12 3 22 10 15 10 15 -2 4 -8 -7 -15 -17 -15 -22 0 -6 -4 -9
-10 -7 -5 1 -9 5 -8 8 1 3 -4 6 -11 6 -7 0 -13 -6 -13 -13 0 -7 3 -12 6 -11 3
1 7 -2 8 -8 1 -5 -6 -9 -15 -7 -10 2 -13 0 -7 -5 12 -9 13 -28 3 -39 -4 -4 -3
-13 3 -20 6 -8 6 -14 0 -18 -11 -7 -25 29 -16 44 3 5 0 20 -7 32 -7 13 -12 31
-13 40 0 9 -3 19 -6 22 -3 3 -5 -6 -5 -22 1 -15 -3 -28 -9 -29 -5 -1 -9 6 -7
15 2 14 1 15 -7 2 -5 -8 -7 -19 -3 -24 9 -16 10 -66 0 -72 -4 -3 -9 6 -9 20
-2 34 -3 39 -12 53 -4 6 -3 15 3 18 8 5 8 11 1 19 -6 7 -7 17 -3 21 4 5 1 5
-6 1 -10 -6 -10 -11 -2 -21 7 -8 7 -15 1 -19 -10 -7 -9 -31 2 -42 11 -11 8
-52 -3 -59 -7 -4 -9 2 -6 17 2 13 -2 32 -10 42 -9 13 -10 24 -4 37 7 12 6 20
-2 25 -6 4 -8 3 -5 -3 4 -6 -2 -22 -13 -34 -11 -13 -19 -19 -20 -13 0 6 3 14
7 18 10 9 12 56 2 51 -4 -3 -6 -13 -4 -23 1 -9 -2 -22 -7 -29 -6 -7 -4 -19 4
-32 11 -18 10 -23 -5 -38 -9 -10 -17 -12 -17 -6 0 7 4 15 10 18 6 4 4 15 -5
29 -8 12 -12 26 -8 30 4 3 8 14 9 22 1 9 -1 13 -4 9 -4 -4 -7 -11 -7 -16 0
-11 -20 -12 -20 -1 0 4 -3 12 -7 18 -4 6 -1 22 6 35 7 15 10 33 5 44 -5 14 -8
15 -9 5 -3 -31 -11 -64 -16 -69 -3 -3 -4 21 0 53 5 52 4 57 -9 40 -13 -18 -14
-18 -13 1 0 11 -1 27 -3 35 -2 9 2 14 10 12 11 -2 12 0 3 11 -7 8 -10 16 -7
19 3 2 -2 5 -10 5 -11 0 -12 -4 -4 -13 6 -8 6 -14 0 -18 -11 -7 -25 29 -16 43
3 5 2 12 -3 15 -14 8 -12 -38 3 -61 18 -26 19 -33 5 -33 -5 0 -9 6 -7 13 1 6
-3 11 -10 10 -8 -2 -10 4 -6 14 4 10 2 14 -4 10 -6 -4 -9 6 -8 23 1 17 -2 27
-8 23 -6 -3 -8 9 -5 31 4 36 1 47 -7 24z m110 -286 c0 -4 10 -21 22 -38 16
-22 19 -34 11 -42 -5 -5 -7 -15 -3 -22 11 -17 47 20 42 42 -7 24 9 33 18 10
12 -28 13 -82 2 -89 -6 -4 -8 0 -4 10 3 8 0 21 -8 27 -11 10 -13 7 -9 -17 4
-27 3 -27 -11 -9 -11 14 -15 16 -15 5 -1 -10 -4 -10 -14 4 -11 14 -15 15 -19
5 -3 -7 -4 6 -2 29 3 23 1 44 -3 47 -4 2 -7 -10 -8 -27 -1 -36 -14 -110 -20
-116 -6 -6 3 136 9 146 4 6 4 20 2 33 -2 12 -1 19 3 16 4 -4 7 -11 7 -14z
m309 -13 c-3 -5 -10 -7 -15 -3 -5 3 -7 10 -3 15 3 5 10 7 15 3 5 -3 7 -10 3
-15z m-2163 -34 c9 6 12 -9 11 -55 0 -52 -2 -61 -11 -56 -5 3 -5 22 -1 42 5
20 5 33 0 28 -5 -5 -10 -20 -12 -34 -2 -19 -5 -21 -10 -9 -3 9 0 28 7 42 10
20 11 28 1 36 -9 7 -12 4 -14 -14 -1 -14 -2 -36 -3 -50 -1 -14 -6 -28 -12 -32
-6 -4 -8 0 -5 9 4 8 1 15 -7 15 -8 0 -11 -7 -7 -15 4 -10 1 -13 -7 -8 -7 5
-10 14 -8 20 3 7 -1 13 -8 13 -7 0 -11 -6 -8 -13 2 -6 -1 -15 -8 -20 -8 -5
-11 -2 -7 8 4 8 1 15 -7 15 -8 0 -11 -7 -7 -15 4 -10 1 -13 -7 -8 -7 5 -10 15
-7 23 3 8 2 11 -4 8 -10 -6 -32 29 -23 38 3 4 15 -5 26 -19 13 -17 23 -22 30
-15 7 7 6 15 -2 25 -7 8 -10 20 -7 25 4 5 2 12 -4 16 -6 4 -7 11 -4 17 4 6 15
-7 25 -29 22 -47 44 -69 54 -53 4 6 2 17 -4 24 -6 7 -8 16 -4 20 11 11 12 35
2 42 -5 3 -7 10 -3 15 3 5 15 -2 26 -16 11 -14 24 -23 29 -20z m2154 7 c-3 -3
1 -12 8 -20 10 -13 9 -14 -1 -8 -7 4 -12 4 -11 -1 1 -4 1 -14 0 -22 -1 -20
-16 -4 -17 20 -4 55 -4 55 -18 29 -7 -14 -11 -35 -9 -48 2 -15 0 -21 -7 -17
-6 4 -9 1 -8 -7 2 -8 -6 -13 -19 -12 -15 1 -20 -3 -15 -14 4 -10 1 -13 -7 -8
-7 5 -10 14 -8 20 3 7 1 19 -4 27 -8 12 -10 12 -8 -1 3 -32 -3 -44 -11 -20 -8
25 -8 25 -9 2 -1 -14 -5 -20 -12 -17 -7 5 -5 14 4 28 8 12 13 31 11 42 -4 27
16 51 27 33 5 -7 6 -21 3 -30 -3 -10 0 -27 6 -38 9 -17 14 -19 26 -9 10 8 12
15 5 22 -7 7 -7 15 0 24 7 7 8 13 3 13 -4 0 3 11 16 25 22 23 25 24 42 8 10
-9 16 -18 13 -21z m-1982 -38 c-19 -30 -29 -25 -13 6 9 17 9 25 -1 34 -9 8
-10 8 -5 -1 8 -15 -4 -44 -16 -37 -5 4 -5 11 1 18 6 7 8 16 5 19 -3 3 -3 11 2
18 5 9 12 6 25 -10 17 -21 17 -24 2 -47z m2222 36 c-5 -7 25 -38 32 -32 1 1 3
0 3 -3 0 -3 -2 -4 -3 -2 -2 1 -12 -5 -22 -13 -17 -14 -17 -13 -11 10 6 19 5
21 -3 10 -10 -14 -16 -7 -11 15 1 6 -2 6 -7 2 -4 -5 -9 -12 -9 -15 -6 -29 -18
-51 -25 -46 -5 3 -1 20 8 37 10 18 18 37 19 42 1 6 2 14 3 19 0 5 8 3 16 -4 8
-7 13 -16 10 -20z m-3135 -24 c0 -5 -9 -1 -20 9 -11 10 -17 22 -14 27 6 9 33
-20 34 -36z m-17 -22 c-6 -17 -23 -9 -19 9 1 7 1 8 -2 4 -7 -14 -31 14 -25 29
5 12 10 11 29 -7 12 -11 20 -27 17 -35z m72 33 c5 5 3 0 -4 -9 -18 -24 4 -55
25 -37 11 9 16 6 23 -14 15 -38 64 -25 53 15 -3 14 -1 19 6 14 6 -3 9 -15 7
-26 -2 -11 0 -22 6 -25 5 -4 9 -12 9 -18 0 -7 -7 -4 -14 6 -13 17 -14 17 -20
0 -6 -15 -8 -15 -16 -3 -9 13 -10 13 -10 0 -1 -12 -3 -11 -14 3 -11 14 -15 15
-20 5 -3 -7 -3 -1 -1 15 2 16 0 25 -6 22 -5 -4 -7 -10 -5 -14 3 -4 1 -13 -5
-21 -7 -12 -9 -10 -9 7 0 12 -4 24 -9 27 -4 3 -6 -7 -3 -22 3 -15 2 -24 -2
-21 -9 8 -18 48 -18 79 0 15 -2 19 -5 10 -3 -8 -12 -23 -20 -32 -8 -9 -12 -21
-9 -27 4 -5 2 -12 -4 -16 -15 -10 -12 28 5 52 9 12 15 26 14 30 -4 21 3 25 19
10 10 -10 23 -14 27 -10z m199 -12 c-3 -6 4 -19 15 -29 19 -17 20 -17 34 10 8
15 16 23 19 18 3 -5 -6 -24 -19 -43 -13 -20 -23 -27 -23 -18 0 9 -4 18 -9 21
-5 4 -7 -4 -4 -16 3 -13 3 -20 -1 -16 -4 3 -7 9 -7 12 1 4 -5 19 -13 35 -9 16
-12 32 -8 36 4 5 1 5 -6 1 -9 -5 -9 -12 -2 -27 6 -11 7 -25 3 -32 -8 -13 -10
-19 -12 -43 0 -9 -7 -14 -14 -11 -15 6 -21 -29 -6 -38 5 -3 6 1 3 9 -7 18 11
22 22 5 4 -8 9 -8 17 0 7 7 15 7 26 -2 10 -8 13 -8 8 0 -8 13 10 12 32 -1 10
-6 12 -5 7 2 -4 7 -2 12 3 12 6 0 11 -6 11 -12 0 -9 4 -8 10 2 9 13 10 13 10
0 0 -13 1 -13 10 0 9 13 10 13 10 0 0 -13 1 -13 10 0 9 13 10 13 10 0 0 -13 1
-13 10 0 9 13 10 13 10 0 0 -13 1 -13 10 0 9 13 10 13 10 0 0 -13 1 -13 10 0
9 13 10 13 10 0 0 -13 1 -13 10 0 9 13 10 13 10 0 0 -13 1 -13 10 0 9 13 10
13 10 0 0 -13 1 -13 10 0 9 13 10 13 10 0 0 -13 1 -13 10 0 9 13 10 13 10 0 0
-13 1 -13 10 0 9 13 10 13 10 0 0 -13 1 -13 10 0 9 13 10 13 10 0 0 -13 1 -13
10 0 9 13 10 13 10 0 0 -13 1 -13 10 0 8 12 10 12 10 1 0 -8 3 -12 6 -8 3 3 1
14 -5 24 -6 11 -11 13 -11 5 0 -7 -5 -10 -11 -7 -6 4 -8 14 -5 22 4 9 2 11 -6
7 -8 -5 -9 -2 -5 10 5 11 3 15 -5 10 -7 -5 -8 -3 -3 6 6 9 4 11 -6 5 -8 -5
-11 -5 -7 0 4 4 3 14 -4 22 -6 7 -8 16 -5 19 3 3 19 -15 36 -39 30 -44 42 -50
68 -34 6 4 14 3 18 -3 4 -6 11 -8 16 -5 5 4 10 -6 10 -22 1 -20 3 -22 6 -8 10
47 12 49 32 31 19 -17 31 -12 31 12 0 7 9 25 20 39 13 17 17 30 11 37 -6 7 -6
18 -2 25 6 9 10 10 15 2 4 -6 12 -9 17 -5 6 3 5 -3 -2 -14 -10 -16 -9 -24 4
-43 10 -13 17 -30 16 -39 0 -8 -7 0 -15 18 -16 37 -25 42 -16 10 5 -21 4 -22
-13 -8 -15 12 -17 12 -10 1 5 -8 4 -12 -1 -8 -6 3 -11 -4 -11 -16 -2 -17 0
-19 7 -7 7 11 9 4 7 -21 -2 -23 1 -36 9 -36 7 0 10 6 7 13 -2 6 1 15 8 20 9 5
10 2 6 -9 -3 -9 -1 -19 5 -23 7 -4 8 -3 4 4 -4 7 1 10 14 7 17 -3 19 -1 9 16
-6 12 -8 23 -5 26 3 3 10 -6 16 -21 12 -32 30 -26 30 10 0 14 4 23 9 20 5 -3
7 -16 5 -29 -4 -20 -4 -21 5 -2 l10 20 1 -20 1 -20 10 20 c9 19 9 18 5 -3 -2
-13 0 -20 6 -16 5 3 8 14 5 24 -2 10 0 24 5 31 6 10 8 2 6 -23 -2 -20 0 -34 4
-32 4 3 8 19 8 35 0 17 4 28 9 24 6 -3 6 -18 1 -35 -5 -19 -5 -28 1 -25 5 4
10 16 10 28 1 20 2 20 6 2 3 -11 9 -24 14 -29 5 -6 5 4 0 22 -6 19 -6 34 0 37
5 4 9 -7 9 -24 0 -16 4 -32 9 -35 4 -3 5 13 1 34 -4 22 -3 43 1 46 9 5 13 -23
10 -58 -1 -9 2 -19 8 -22 5 -3 7 4 5 16 -4 21 -4 22 5 3 8 -17 10 -17 10 -3 1
9 6 20 12 24 8 4 9 -1 4 -17 -5 -18 -4 -20 4 -9 8 12 10 11 8 -7 0 -12 -4 -20
-8 -17 -4 2 -12 -3 -19 -11 -7 -8 -9 -15 -5 -15 5 0 1 -8 -8 -18 -10 -10 -15
-22 -12 -25 3 -4 2 -4 -2 -1 -5 3 -9 10 -9 15 -3 19 -4 20 -14 14 -7 -4 -6
-14 1 -28 10 -21 10 -21 -5 -3 -12 15 -16 16 -16 5 0 -8 6 -22 12 -29 11 -13
11 -13 -1 -3 -22 19 -46 -3 -29 -26 8 -10 5 -9 -10 3 -12 11 -22 27 -22 37 0
10 -4 20 -9 24 -11 6 -8 -35 3 -54 5 -7 3 -18 -3 -24 -9 -9 -10 -7 -5 7 5 14
4 17 -5 12 -6 -4 -10 -3 -9 2 2 6 -1 10 -7 10 -5 0 -9 -5 -7 -12 1 -6 -9 3
-23 19 -30 36 -34 19 -5 -18 11 -14 16 -28 11 -31 -11 -7 -9 -25 4 -46 7 -13
6 -13 -7 -2 -12 10 -17 10 -27 -1 -6 -8 -7 -18 -3 -22 4 -5 1 -5 -6 -1 -11 6
-8 13 9 32 12 13 19 24 15 24 -5 0 -4 6 2 13 7 8 5 18 -6 32 -17 20 -42 27
-42 13 0 -5 2 -7 3 -5 2 1 11 -4 21 -12 12 -10 14 -17 5 -27 -6 -8 -8 -14 -3
-14 4 0 -2 -10 -14 -23 -12 -13 -20 -26 -16 -29 3 -3 1 -9 -4 -12 -16 -10 -8
21 11 42 13 14 14 21 4 31 -6 6 -13 16 -13 22 -1 5 -3 11 -4 14 -3 5 -6 19 -9
33 -1 4 -5 0 -11 -8 -5 -9 -5 -19 2 -27 6 -7 7 -13 3 -13 -5 0 -1 -8 9 -18 15
-18 15 -20 -6 -38 -13 -10 -20 -15 -15 -10 4 5 -1 18 -10 28 -22 25 -24 44 -7
59 8 6 14 16 14 22 0 5 -10 2 -22 -9 -12 -10 -18 -14 -15 -7 4 6 3 14 -2 17
-8 5 -25 -30 -22 -47 1 -5 -3 -6 -9 -2 -8 5 -7 11 1 21 9 11 9 21 0 41 -6 14
-14 23 -17 20 -3 -3 -1 -14 5 -25 8 -16 4 -26 -24 -60 -28 -32 -32 -42 -21
-51 7 -6 15 -9 18 -6 2 3 5 -2 5 -10 0 -14 -2 -14 -16 -1 -13 14 -17 14 -35
-2 -21 -17 -21 -17 -2 6 11 12 16 22 12 22 -5 0 6 16 23 36 17 19 29 39 26 44
-7 11 -41 6 -35 -6 3 -5 10 -8 15 -6 6 2 -5 -12 -23 -30 -18 -19 -30 -37 -27
-40 4 -3 1 -9 -6 -14 -7 -4 -10 -3 -6 3 4 6 0 16 -8 23 -11 9 -12 17 -4 31 5
10 7 19 4 19 -3 0 -8 0 -12 0 -5 0 -8 -4 -8 -9 0 -5 -3 -13 -8 -17 -4 -4 0
-16 10 -26 9 -10 13 -18 8 -18 -4 0 -1 -8 6 -17 13 -16 12 -17 -3 -4 -10 7
-16 17 -13 21 3 4 -2 13 -10 20 -11 9 -12 16 -5 25 7 8 4 17 -10 30 -12 10
-19 24 -16 30 2 7 0 18 -5 26 -6 10 -9 7 -9 -12 0 -14 -10 -34 -22 -45 -14
-11 -18 -13 -10 -3 9 12 9 20 -2 35 -14 18 -14 18 -13 -6 0 -14 -2 -32 -4 -40
-2 -8 1 -14 8 -13 6 1 10 -5 8 -15 -4 -24 6 -37 16 -21 6 10 9 10 9 2 0 -30
-33 -19 -35 12 -1 6 -6 9 -12 8 -12 -3 -11 17 2 49 8 21 -17 18 -43 -5 -20
-18 -23 -51 -8 -77 5 -8 6 -12 1 -8 -4 4 -15 2 -24 -5 -14 -10 -14 -10 -5 3 6
8 10 27 9 42 -1 16 6 35 16 44 10 9 16 21 13 26 -9 14 -49 -44 -49 -72 0 -14
-3 -29 -6 -35 -4 -5 -5 -18 -4 -28 2 -9 0 -15 -5 -12 -7 4 -6 40 0 40 10 0 3
78 -7 87 -7 6 -11 19 -8 29 9 27 -4 24 -15 -3 -8 -21 -9 -21 -10 -3 0 16 -2
17 -10 5 -5 -8 -5 -19 -1 -25 10 -12 8 -81 -2 -91 -4 -4 -1 -14 6 -23 11 -14
10 -14 -5 -2 -10 7 -15 18 -11 25 11 17 12 87 2 80 -5 -3 -8 -2 -7 3 2 4 -1 8
-7 8 -5 0 -9 -4 -7 -10 2 -5 -5 -2 -16 8 -18 16 -20 16 -37 -3 -9 -10 -20 -18
-24 -17 -3 1 -6 -2 -6 -8 0 -5 3 -9 7 -8 3 1 5 -5 3 -15 -4 -24 6 -37 16 -21
6 10 9 10 9 2 0 -30 -33 -19 -35 12 -1 6 -6 9 -12 8 -7 -2 -10 6 -8 17 2 11 0
22 -6 25 -5 4 -5 14 2 26 6 12 8 23 6 26 -3 3 -13 -9 -21 -26 -18 -33 -20 -45
-8 -37 4 2 8 -11 8 -29 0 -19 -4 -31 -10 -28 -6 4 -6 -1 -2 -13 5 -14 4 -16
-5 -7 -6 6 -8 17 -3 25 12 19 13 37 3 44 -6 3 -7 13 -4 23 4 13 -1 17 -20 17
-14 0 -24 -5 -21 -10 2 -6 9 -10 15 -8 7 1 10 -2 7 -7 -4 -5 -2 -12 3 -15 8
-5 8 -27 1 -46 -1 -3 -2 -9 -1 -14 1 -5 -5 -4 -13 4 -9 7 -16 18 -16 24 0 6 5
4 10 -4 5 -8 10 -12 11 -7 5 27 3 34 -14 54 -10 12 -16 26 -13 32 4 5 2 12 -3
15 -19 12 -17 -30 3 -52 15 -17 17 -23 6 -20 -8 2 -14 -3 -13 -9 2 -7 0 -12
-5 -10 -4 1 -8 -2 -9 -8 -2 -5 1 -10 6 -10 13 0 25 -13 27 -31 1 -9 -1 -13 -4
-9 -4 4 -7 12 -7 18 0 7 -9 12 -21 11 -26 -1 -27 20 -2 43 18 16 18 17 -4 40
l-22 23 -38 -37 -38 -37 28 -30 c26 -30 26 -30 1 -8 -22 19 -28 20 -37 9 -7
-8 -8 -18 -4 -22 4 -5 1 -5 -6 -1 -11 6 -10 12 5 28 20 22 20 24 -8 54 l-20
21 27 -1 c15 0 29 4 31 10 2 6 -8 10 -24 9 -15 -1 -34 3 -41 8 -17 13 -11 -25
8 -48 21 -26 20 -42 -3 -62 -22 -18 -22 -18 -6 2 18 23 19 51 1 47 -7 -1 -11
1 -10 5 2 5 -1 9 -7 11 -5 1 -10 -7 -10 -17 0 -11 -2 -22 -5 -25 -3 -3 -6 10
-6 29 0 18 5 33 11 32 5 -1 8 5 6 13 -8 34 -8 45 -2 55 3 6 6 17 6 25 0 8 4
21 8 28 5 6 6 16 2 21 -3 5 -1 12 4 15 5 4 8 24 7 46 -3 47 5 57 26 32 21 -24
31 -69 16 -78 -7 -5 -9 -2 -6 7 3 8 0 28 -6 44 -12 29 -12 28 -10 -20 4 -72 3
-71 14 -55 9 13 10 13 10 0 0 -13 1 -13 10 0 9 13 10 13 10 0 0 -13 2 -13 9 0
11 17 4 33 -11 24 -5 -4 -4 4 3 17 7 13 12 29 11 36 -1 6 2 14 8 18 5 3 10 1
10 -4 0 -31 18 -64 31 -56 5 4 9 -1 9 -11 0 -14 -2 -15 -17 -3 -14 12 -16 12
-8 0 5 -10 4 -12 -3 -7 -8 5 -10 1 -5 -10 5 -13 8 -14 11 -5 4 11 6 11 13 0 7
-12 9 -11 9 1 0 13 1 13 10 0 9 -13 10 -13 10 0 0 13 1 13 10 0 7 -12 9 -10 7
7 -1 17 -4 19 -14 11 -10 -8 -13 -7 -13 5 0 9 7 14 18 12 9 -2 17 -4 17 -5 0
-7 36 -6 41 1 4 6 11 6 19 -1 16 -13 30 4 18 23 -11 18 -12 36 -3 42 5 3 12
-11 16 -31 l7 -37 12 34 c7 22 8 39 2 47 -7 8 -4 19 8 32 13 15 21 17 26 9 4
-7 5 -17 3 -24z m119 9 c16 -20 16 -22 1 -35 -15 -12 -16 -11 -10 11 7 24 7
25 -6 3 -7 -12 -17 -23 -23 -25 -5 -2 -8 -12 -7 -23 2 -17 1 -17 -7 -5 -6 8
-11 11 -12 5 0 -5 -2 -18 -4 -28 -3 -14 0 -16 10 -7 10 8 14 7 18 -2 2 -7 4 0
4 15 0 16 5 33 11 39 8 8 10 0 7 -28 -4 -35 -3 -36 4 -9 8 28 16 18 11 -15 -1
-11 3 -9 15 5 12 14 15 15 12 4 -3 -9 1 -16 8 -16 7 0 11 7 8 16 -3 11 0 10
11 -3 9 -11 16 -14 16 -7 0 7 5 9 10 6 26 -16 2 -21 -96 -20 -58 1 -108 -3
-110 -7 -11 -18 -23 4 -14 26 5 13 6 26 4 29 -3 3 1 8 8 13 7 4 10 4 6 -1 -10
-10 11 -37 23 -29 5 3 9 -3 9 -13 1 -10 7 -3 16 17 8 19 24 44 35 56 11 12 19
25 18 30 -2 12 0 28 4 23 1 -2 10 -13 20 -25z m45 -20 c-6 -13 -16 -22 -22
-21 -6 1 -10 -9 -8 -23 2 -22 1 -23 -9 -7 -9 15 -7 23 10 41 12 13 21 27 20
32 -3 20 2 28 10 15 6 -9 5 -23 -1 -37z m41 -6 c2 -18 3 -41 4 -50 1 -9 6 -14
11 -11 5 4 6 1 1 -7 -5 -9 -4 -11 3 -6 7 4 12 1 13 -6 0 -10 2 -10 6 0 5 12
23 7 23 -7 0 -15 -45 -6 -58 12 -7 9 -17 15 -22 12 -15 -9 -22 14 -10 32 10
16 11 16 7 -3 -3 -12 1 -21 8 -21 10 0 11 7 5 23 -5 12 -6 25 -3 28 4 3 3 6 0
6 -4 0 -16 -14 -26 -31 -17 -28 -19 -28 -24 -9 -3 11 -1 18 4 15 11 -8 37 46
31 65 -4 12 -3 13 10 3 8 -7 16 -28 17 -45z m86 26 c-11 -17 -13 -29 -7 -37 6
-7 11 -15 11 -20 0 -4 7 -20 15 -35 13 -25 13 -29 0 -29 -8 0 -13 5 -11 11 2
6 -5 24 -15 39 -19 27 -32 81 -18 72 4 -3 13 2 20 10 20 24 24 17 5 -11z m142
11 c0 -8 -4 -12 -9 -9 -5 3 -6 10 -3 15 9 13 12 11 12 -6z m312 -33 c-7 -17
-6 -29 1 -36 8 -8 9 -5 5 9 -6 16 -5 17 4 5 9 -12 10 -10 6 11 -7 28 18 61 28
37 2 -7 4 -16 3 -19 -2 -12 37 -49 45 -43 5 3 7 15 4 27 -4 13 1 30 10 42 9
11 14 15 11 9 -3 -7 0 -17 8 -23 10 -9 16 -8 26 4 18 21 27 19 25 -7 -1 -13
-6 -21 -11 -18 -5 3 -8 9 -6 14 2 5 -4 4 -12 -3 -9 -7 -14 -17 -11 -21 3 -5 1
-11 -5 -15 -9 -5 -15 15 -11 38 1 5 -3 6 -8 2 -6 -3 -7 -15 -1 -29 5 -13 7
-36 5 -52 -2 -25 -1 -26 10 -10 8 10 11 24 9 31 -3 7 0 16 7 21 9 5 10 2 6 -9
-3 -9 -1 -19 5 -23 7 -5 8 -2 3 6 -6 9 -4 11 5 5 9 -5 11 -4 6 4 -4 6 -2 19 5
27 10 12 14 12 22 2 6 -10 7 -8 3 4 -6 19 9 34 19 19 7 -13 -54 -83 -67 -75
-5 3 -8 -2 -6 -12 2 -11 -2 -18 -9 -16 -7 1 -13 -6 -13 -15 -1 -10 -7 -3 -15
16 -13 28 -17 31 -30 21 -12 -10 -16 -9 -20 4 -17 52 -14 51 -39 27 -26 -24
-29 -22 -40 22 -4 17 -3 26 3 23 5 -3 8 2 6 11 -3 24 6 38 15 22 5 -7 4 -24
-1 -37z m1979 41 c-1 -5 6 -21 16 -36 10 -15 16 -30 13 -33 -3 -3 -10 4 -17
15 -6 12 -15 19 -21 16 -5 -4 -7 4 -5 17 6 29 5 28 11 28 3 0 4 -3 3 -7z
m-2003 -12 c3 -5 1 -12 -5 -16 -5 -3 -7 -20 -4 -38 4 -23 3 -28 -4 -17 -6 8
-9 17 -6 21 2 4 -4 13 -14 20 -15 13 -16 12 -4 -3 9 -11 10 -18 2 -23 -5 -3
-10 0 -10 7 0 9 -3 9 -10 -2 -5 -8 -9 -22 -9 -30 0 -10 3 -8 9 5 6 13 9 15 9
5 1 -13 2 -13 11 0 13 20 13 4 -1 -21 -10 -19 -12 -19 -28 -5 -21 19 -31 12
-31 -23 l0 -26 -15 29 c-9 16 -13 38 -9 48 3 10 1 25 -6 33 -7 9 -7 15 -1 19
14 9 44 -40 35 -56 -11 -20 8 2 40 45 27 37 40 45 51 28z m1979 -23 c-1 -13
-3 -27 -3 -33 -1 -5 -5 -4 -10 4 -5 8 -7 21 -4 30 2 9 -7 -2 -21 -24 -15 -23
-26 -33 -26 -23 0 20 49 80 59 73 4 -2 7 -14 5 -27z m134 23 c1 0 -4 -14 -13
-30 -9 -19 -11 -32 -5 -36 6 -3 11 -16 11 -28 1 -20 2 -21 6 -2 3 11 10 31 15
44 8 23 9 23 22 6 9 -13 15 -15 20 -6 11 17 37 -6 29 -25 -3 -8 1 -22 8 -32
13 -15 12 -16 -3 -4 -14 11 -18 10 -26 -4 -8 -15 -9 -15 -16 1 -8 22 4 42 15
24 5 -8 9 -9 9 -4 0 6 -5 17 -10 25 -9 13 -10 13 -10 0 -1 -11 -4 -10 -15 4
-8 11 -15 16 -16 10 0 -5 -2 -22 -4 -39 -4 -24 -3 -26 5 -10 5 11 9 17 9 13 1
-3 3 -13 6 -20 4 -11 -5 -14 -37 -13 -24 1 -47 -1 -53 -4 -16 -9 -76 -8 -81 1
-3 5 -11 5 -17 1 -17 -10 -77 -11 -83 -1 -3 5 -11 5 -17 1 -17 -11 -50 -11
-64 -1 -6 5 -14 4 -18 -2 -5 -8 -10 -8 -20 0 -7 6 -16 7 -19 2 -3 -5 -18 -8
-33 -8 -21 2 -29 8 -32 26 l-4 25 -6 -23 c-7 -27 -25 -31 -28 -5 -2 15 -1 15
6 -2 7 -13 10 -15 10 -5 0 8 -3 21 -8 29 -6 10 -11 6 -19 -15 l-11 -29 2 31
c1 23 5 31 17 29 8 -2 16 -4 18 -5 1 -2 7 -4 12 -5 6 -1 12 -4 15 -5 18 -9 33
-4 54 19 15 17 21 20 18 9 -6 -18 8 -32 33 -33 8 0 21 -4 28 -8 7 -5 14 -2 18
7 3 9 10 14 14 11 13 -8 40 31 35 53 -2 12 0 24 5 27 4 3 7 -2 6 -12 -2 -9 4
-30 12 -45 8 -16 11 -32 8 -35 -3 -3 -10 5 -15 18 -7 17 -10 19 -10 7 -1 -10
-6 -17 -13 -15 -6 1 -13 -7 -14 -18 -2 -15 -2 -16 2 -2 3 9 10 15 15 11 5 -3
6 -11 2 -17 -4 -7 2 -5 12 3 15 12 17 12 10 1 -6 -10 -4 -12 5 -6 9 6 11 4 5
-6 -5 -8 -4 -11 1 -6 5 5 9 12 9 15 0 4 6 22 14 40 12 30 15 31 27 15 7 -10
13 -22 13 -28 0 -5 -6 -1 -14 9 -8 11 -15 18 -15 15 0 -2 -4 -19 -9 -37 -6
-20 -6 -30 0 -27 5 4 9 15 9 26 0 11 4 18 10 14 5 -3 7 -13 4 -23 -5 -14 -4
-15 5 -2 9 13 11 13 11 1 0 -11 4 -9 15 5 11 13 15 14 13 4 -2 -8 2 -15 7 -15
5 0 8 6 7 14 -2 7 1 10 8 6 6 -4 9 -14 6 -24 -5 -12 -2 -11 9 3 10 13 15 15
15 6 0 -9 5 -8 16 6 14 17 15 17 10 1 -3 -10 -2 -15 3 -12 6 3 9 14 8 25 -1
10 -4 17 -8 15 -9 -6 -5 37 5 53 4 7 5 16 2 19 -3 4 -6 1 -6 -6 0 -7 -4 -10
-9 -7 -5 4 -8 -2 -7 -11 2 -10 -4 -24 -13 -31 -14 -10 -13 -11 4 -5 18 6 19 5
6 -11 -11 -13 -16 -14 -22 -4 -7 10 -9 10 -9 -2 0 -10 -7 -7 -21 10 -11 14
-18 19 -14 13 3 -7 3 -18 -1 -24 -11 -19 -24 13 -13 33 10 18 11 18 28 -3 l18
-23 14 25 c7 13 14 29 15 34 2 21 5 22 27 20 12 -1 23 -3 25 -4z m-2816 -23
c-7 -7 -12 -8 -12 -2 0 14 12 26 19 19 2 -3 -1 -11 -7 -17z m251 -46 c15 -23
22 -44 17 -51 -5 -9 -9 -8 -16 6 -4 10 -8 23 -9 28 0 6 -5 10 -10 10 -6 0 -8
-6 -7 -15 3 -11 1 -12 -8 -4 -9 9 -9 17 -1 32 6 10 7 22 4 26 -3 3 -4 6 -1 6
3 0 17 -17 31 -38z m304 -37 c7 -11 12 -24 12 -30 0 -5 -6 1 -14 15 -8 14 -14
19 -15 13 0 -21 -16 -15 -16 6 0 24 17 22 33 -4z m1672 -29 c9 -10 7 -17 -6
-27 -16 -12 -17 -12 -6 2 10 12 10 18 1 27 -7 7 -9 12 -6 12 3 0 11 -6 17 -14z
m-13 -112 c1 -9 0 -13 -4 -10 -3 4 -7 14 -8 22 -1 9 0 13 4 10 3 -4 7 -14 8
-22z m-2427 -37 c8 -11 6 -18 -10 -33 -11 -10 -19 -13 -17 -7 2 6 -1 11 -7 12
-5 1 -10 -7 -10 -16 1 -10 6 -17 11 -16 6 1 11 -5 11 -13 0 -10 -7 -8 -24 8
l-23 22 27 28 c31 33 28 31 42 15z m212 -21 c-4 -6 -7 -19 -6 -28 2 -10 -1
-20 -6 -24 -5 -3 -6 -10 -3 -16 4 -7 2 -8 -5 -4 -7 5 -9 12 -3 19 12 16 8 42
-5 40 -12 -3 -12 15 1 35 6 10 11 10 22 1 9 -7 11 -16 5 -23z m83 -13 c-1 -21
-3 -40 -4 -43 -1 -3 -2 -9 -1 -13 1 -5 -3 -6 -9 -2 -7 4 -7 11 -2 18 5 7 8 29
7 49 -1 20 2 35 5 33 4 -2 5 -21 4 -42z m99 35 c-15 -19 -8 -65 13 -91 l18
-22 -23 22 c-25 23 -34 69 -18 91 5 6 12 12 14 12 3 0 1 -6 -4 -12z m98 -21
c-7 -7 -6 -16 6 -29 9 -10 13 -18 8 -18 -4 0 -2 -6 4 -14 8 -10 9 -16 1 -21
-6 -4 -10 -3 -9 2 1 4 0 11 -1 16 -1 4 -3 13 -4 20 -1 6 -7 11 -14 10 -7 -2
-11 3 -9 10 1 6 -3 11 -10 10 -12 -3 -12 15 1 35 6 10 11 10 22 1 10 -8 12
-15 5 -22z m1345 8 c1 -8 -1 -13 -6 -12 -4 1 -9 -2 -10 -8 0 -5 -10 -19 -21
-31 -10 -11 -16 -24 -12 -29 5 -4 2 -5 -5 -1 -11 6 -10 12 4 27 9 10 14 19 9
19 -4 0 -2 6 4 13 6 8 7 17 3 21 -4 4 0 6 8 4 9 -2 14 3 12 12 -2 8 0 11 4 7
4 -4 9 -14 10 -22z m612 16 c0 -3 1 -8 2 -11 6 -15 6 -59 -1 -54 -11 6 -30
-31 -21 -41 4 -5 1 -5 -6 -1 -8 5 -9 13 -3 24 4 9 6 24 4 32 -4 13 -3 13 6 0
6 -8 11 -12 12 -7 5 26 4 34 -8 48 -11 13 -11 16 1 16 8 0 15 -3 14 -6z m171
-27 c-6 -8 -8 -14 -4 -14 4 0 3 -6 -2 -12 -11 -16 -11 -28 2 -48 8 -13 7 -13
-8 -1 -9 7 -15 17 -12 21 7 11 -20 31 -31 22 -5 -4 0 3 10 16 11 12 16 22 11
22 -4 0 -2 7 5 15 10 12 16 13 26 4 11 -9 11 -15 3 -25z m396 16 c-3 -5 -1
-11 5 -15 6 -4 7 -12 3 -18 -11 -17 -11 -30 1 -47 10 -13 9 -13 -6 -1 -10 7
-16 17 -13 21 3 4 -2 13 -10 20 -14 12 -14 15 0 30 8 9 12 20 8 25 -5 4 -2 5
5 1 7 -4 10 -11 7 -16z m-2343 -33 c-11 -12 -18 -30 -17 -39 2 -10 0 -20 -5
-23 -5 -3 -7 3 -5 12 3 23 -14 45 -29 36 -6 -3 -2 3 8 15 15 17 22 19 33 10
11 -9 15 -7 20 13 4 13 8 18 11 11 2 -8 -5 -23 -16 -35z m-437 1 c-2 -18 -4
-34 -5 -35 -2 -2 -3 -7 -4 -12 0 -5 -4 -12 -8 -16 -5 -6 -3 25 2 33 2 1 4 11
5 22 1 11 3 25 4 30 0 6 3 10 5 10 3 0 3 -15 1 -32z m621 10 c-2 -13 2 -30 8
-38 9 -13 9 -13 -6 -2 -9 7 -15 21 -13 30 2 9 4 20 4 25 1 4 3 7 6 7 3 0 3
-10 1 -22z m929 10 c5 4 4 0 -1 -8 -5 -8 -9 -18 -9 -22 0 -3 -3 -9 -7 -13 -3
-4 -5 1 -4 12 2 10 -2 25 -8 33 -9 13 -9 13 5 3 9 -7 20 -9 24 -5z m1010 -25
c-1 -16 2 -33 7 -40 6 -7 4 -14 -3 -19 -7 -4 -9 -3 -5 4 3 6 2 13 -2 16 -10 6
-8 66 1 66 2 0 3 -12 2 -27z m112 12 c0 -8 -8 -22 -17 -30 -14 -13 -16 -12
-17 8 -2 17 0 19 7 7 5 -8 10 -12 11 -7 1 4 3 12 4 17 1 6 3 12 4 15 2 11 8 4
8 -10z m-3066 -38 l-24 -22 19 27 c10 14 21 24 23 22 3 -3 -6 -15 -18 -27z
m875 -3 c1 -9 -1 -13 -4 -9 -4 4 -7 11 -7 16 0 5 -4 9 -10 9 -5 0 -10 -4 -10
-9 0 -5 -3 -12 -7 -16 -9 -9 -5 17 6 33 10 16 28 2 32 -24z m-576 1 c14 -19
14 -19 -2 -6 -10 7 -18 18 -18 24 0 6 1 8 3 6 1 -2 9 -13 17 -24z m280 0 c14
-19 14 -19 -2 -6 -10 7 -18 18 -18 24 0 6 1 8 3 6 1 -2 9 -13 17 -24z m1319
-1 c-14 -13 -17 -13 -30 3 -13 16 -12 17 3 4 15 -11 19 -11 24 3 4 9 9 14 12
11 3 -3 -1 -12 -9 -21z m97 4 c4 -7 4 -10 -1 -6 -4 4 -15 2 -24 -5 -14 -11
-14 -10 -2 6 16 20 18 21 27 5z m1320 0 c4 -7 3 -10 -1 -5 -5 4 -18 -1 -29
-10 -21 -18 -21 -18 -2 5 22 26 23 26 32 10z m-2676 -2 c0 -2 -8 -10 -17 -17
-16 -13 -17 -12 -4 4 13 16 21 21 21 13z m-555 -15 c3 -5 2 -12 -3 -15 -5 -3
-9 1 -9 9 0 17 3 19 12 6z m206 -8 c13 -16 12 -17 -3 -4 -10 7 -18 15 -18 17
0 8 8 3 21 -13z m694 8 c3 -5 2 -12 -3 -15 -5 -3 -9 1 -9 9 0 17 3 19 12 6z
m932 -6 c0 -8 -4 -12 -9 -9 -5 3 -6 10 -3 15 9 13 12 11 12 -6z m968 6 c3 -5
2 -12 -3 -15 -5 -3 -9 1 -9 9 0 17 3 19 12 6z m-2648 -16 c0 -8 -4 -12 -9 -9
-5 3 -6 10 -3 15 9 13 12 11 12 -6z m2800 0 c0 -8 -4 -12 -9 -9 -5 3 -6 10 -3
15 9 13 12 11 12 -6z m173 -19 c0 -2 -8 -10 -17 -17 -16 -13 -17 -12 -4 4 13
16 21 21 21 13z m-559 -23 c13 -16 12 -17 -3 -4 -17 13 -22 21 -14 21 2 0 10
-8 17 -17z m349 3 c0 -2 -8 -10 -17 -17 -16 -13 -17 -12 -4 4 13 16 21 21 21
13z m310 -20 c0 -2 -8 -10 -17 -17 -16 -13 -17 -12 -4 4 13 16 21 21 21 13z
m-1323 -1922 c-3 -3 -12 -4 -19 -1 -8 3 -5 6 6 6 11 1 17 -2 13 -5z"/>
<path d="M254 2409 c-3 -6 -2 -15 4 -21 6 -6 12 -6 17 3 6 8 4 10 -5 4 -10 -6
-12 -4 -7 8 7 19 2 23 -9 6z"/>
<path d="M895 2390 c-4 -6 -9 -8 -13 -6 -4 2 -8 -16 -8 -40 -1 -24 3 -41 8
-38 5 3 6 15 3 27 -5 16 -4 18 3 8 7 -10 12 -7 20 15 6 16 11 23 11 16 1 -7
-4 -22 -10 -34 -6 -11 -8 -22 -5 -25 3 -3 10 5 15 18 7 18 10 20 10 6 1 -12 5
-15 14 -10 6 4 17 8 22 8 6 0 9 11 8 25 -3 25 -3 25 7 3 12 -28 20 -30 13 -3
-8 31 -29 43 -30 18 -3 -35 -21 -44 -32 -16 -11 31 -27 43 -36 28z m8 -20 c-3
-12 -8 -19 -11 -16 -5 6 5 36 12 36 2 0 2 -9 -1 -20z"/>
<path d="M179 2383 c-2 -12 -6 -27 -9 -35 -1 -5 -4 -17 -5 -28 -1 -11 -3 -21
-5 -22 -5 -7 -8 -39 -3 -34 4 3 12 1 20 -5 10 -9 13 -8 13 5 0 10 -4 15 -9 11
-5 -3 -13 0 -17 6 -5 8 -3 9 6 4 10 -6 12 -3 8 13 -4 12 -2 20 2 17 5 -3 11 3
13 12 4 17 5 17 6 0 0 -10 6 -15 11 -12 6 4 7 11 4 17 -4 7 -2 8 5 4 6 -4 9
-11 6 -16 -3 -5 0 -12 6 -16 8 -5 10 -1 7 13 -3 12 0 20 7 20 7 0 10 -9 7 -21
-3 -12 -1 -17 4 -13 5 5 9 13 9 18 0 5 5 9 10 9 6 0 10 -4 10 -9 0 -5 4 -13 9
-18 5 -4 7 1 4 13 -3 12 0 21 7 21 7 0 10 -9 8 -21 -4 -19 -3 -18 10 3 l14 24
12 -33 c13 -40 14 -50 1 -30 -5 8 -10 10 -10 4 0 -6 7 -17 15 -24 13 -10 15
-9 15 8 0 11 -4 32 -10 47 -6 15 -6 24 -1 20 5 -3 12 -1 16 5 4 6 11 8 16 5 5
-3 6 2 3 12 -4 15 -3 14 7 -2 8 -11 14 -33 16 -50 2 -28 1 -28 -6 -5 -4 14
-10 20 -13 14 -4 -5 -3 -16 2 -24 4 -7 6 -20 3 -29 -3 -9 2 -5 12 7 22 29 43
15 26 -17 -7 -12 -10 -21 -9 -22 26 -7 40 -4 54 12 13 14 20 16 30 8 16 -13
18 -8 33 56 8 35 9 36 10 11 1 -35 13 -27 17 10 2 14 0 23 -3 20 -3 -3 -12 -1
-19 5 -8 7 -14 7 -19 -1 -5 -8 -10 -8 -20 0 -10 8 -15 8 -20 0 -5 -8 -11 -7
-23 2 -10 8 -13 9 -9 1 4 -6 3 -14 -2 -17 -13 -8 -34 21 -25 35 4 7 3 9 -4 5
-6 -3 -14 -2 -17 4 -4 7 -11 7 -18 2 -7 -5 -19 -8 -28 -7 -10 2 -16 -4 -15
-13 1 -21 -73 -25 -81 -4 -5 11 -7 11 -14 1 -12 -20 -58 -19 -69 1 -5 10 -6
20 -3 24 3 3 3 6 0 6 -4 0 -8 -3 -8 -7z m261 -67 c0 -16 2 -16 20 5 11 13 20
20 19 14 -4 -28 2 -55 11 -50 5 3 7 12 3 20 -8 24 5 51 19 37 9 -9 15 -8 27 1
12 10 13 9 6 -3 -8 -13 -14 -41 -17 -77 -1 -7 -6 -9 -12 -5 -21 13 -36 10 -37
-6 0 -13 -2 -12 -9 3 -4 12 -15 27 -24 34 -9 7 -16 20 -16 28 0 7 -7 26 -16
41 l-16 27 21 -25 c11 -14 21 -33 21 -44z m-69 31 c-10 -9 -11 -8 -5 6 3 10 9
15 12 12 3 -3 0 -11 -7 -18z"/>
<path d="M501 2320 c2 -14 0 -31 -5 -38 -5 -8 -3 -12 6 -10 23 5 30 40 13 57
-15 15 -16 14 -14 -9z"/>
<path d="M457 2306 c-3 -8 0 -19 7 -25 10 -9 12 -6 8 14 -5 29 -8 31 -15 11z"/>
<path d="M1004 2377 c-3 -8 -4 -19 -2 -25 2 -5 -1 -11 -7 -12 -5 -1 -16 -6
-22 -12 -7 -6 -13 -7 -13 -3 0 4 -7 2 -15 -5 -8 -7 -15 -9 -15 -5 0 4 -7 2
-15 -5 -8 -7 -15 -9 -15 -5 0 4 -7 2 -15 -5 -8 -7 -16 -9 -17 -4 0 5 -2 14 -3
19 -2 6 -3 15 -4 20 -1 6 -39 10 -94 10 l-94 0 3 -38 c1 -22 6 -42 9 -45 16
-17 45 -2 45 23 0 6 -5 3 -11 -5 -9 -13 -10 -12 -5 2 3 10 1 20 -4 23 -5 3
-11 -7 -13 -22 -2 -17 -4 -11 -4 15 0 26 4 38 9 30 6 -10 8 -10 8 1 0 11 4 10
16 -5 11 -13 14 -14 11 -3 -3 9 1 16 8 16 7 0 11 -7 9 -16 -4 -14 -3 -13 7 1
12 15 14 15 27 0 12 -15 13 -15 9 -1 -3 9 1 16 8 16 7 0 11 -7 8 -16 -3 -11 0
-10 11 3 12 15 16 16 17 5 1 -8 2 -21 3 -29 0 -8 7 -14 14 -12 7 1 16 -6 19
-15 6 -15 8 -14 15 7 6 19 7 17 3 -10 -4 -24 -2 -31 5 -24 6 6 12 20 13 32 0
11 5 18 11 15 5 -4 6 -1 1 7 -6 9 -4 11 4 5 9 -5 10 -10 2 -18 -6 -6 -11 -18
-10 -26 0 -12 2 -12 6 -3 4 10 9 9 20 -5 13 -17 13 -17 4 3 -5 11 -7 31 -4 43
5 21 6 21 21 -9 13 -26 17 -29 24 -16 12 21 -1 44 -13 25 -5 -8 -9 -9 -9 -4 0
6 5 17 10 25 9 13 10 13 10 0 1 -11 4 -10 15 4 8 11 15 16 16 10 0 -5 2 -22 4
-39 3 -22 2 -25 -4 -11 -7 18 -8 18 -14 2 -9 -24 1 -40 17 -27 7 6 16 7 21 3
7 -7 4 8 -12 61 -4 12 -6 29 -4 39 3 21 -17 34 -25 15z m13 -19 c-3 -8 -6 -5
-6 6 -1 11 2 17 5 13 3 -3 4 -12 1 -19z"/>
<path d="M1135 2350 c-3 -5 -14 -7 -25 -5 -11 2 -22 0 -25 -5 -3 -5 -14 -7
-25 -5 -17 3 -19 0 -14 -23 15 -60 35 -75 60 -43 9 12 13 10 26 -7 8 -12 18
-19 21 -15 10 10 8 25 -2 19 -5 -4 -7 4 -3 16 3 14 2 19 -7 14 -6 -4 -8 -12
-5 -18 5 -7 2 -8 -5 -4 -7 5 -10 10 -7 13 2 3 1 15 -4 27 -6 16 -5 23 5 23 7
0 11 -9 8 -21 -4 -19 -3 -19 7 -3 6 9 9 21 6 25 -3 5 1 9 8 9 9 0 12 -12 10
-36 -1 -19 1 -42 6 -50 5 -9 7 2 6 31 -1 26 3 45 10 45 6 0 9 -10 6 -22 -2
-13 1 -26 7 -29 6 -4 11 -16 11 -28 0 -17 2 -18 15 -8 8 7 15 18 15 25 0 21
35 46 47 34 8 -8 13 -8 17 0 4 6 4 11 0 11 -4 0 1 10 12 22 11 13 13 18 4 12
-20 -11 -52 -12 -67 -2 -6 5 -14 5 -17 0 -4 -7 -61 -9 -61 -2 0 7 -36 6 -40 0z
m148 -15 c9 2 15 -1 12 -5 -3 -5 -14 -7 -25 -5 -13 3 -20 -2 -21 -13 0 -14 -2
-13 -9 3 -9 21 -12 16 -13 -25 l0 -25 -4 24 c-4 19 -7 21 -14 10 -7 -10 -8 -7
-6 11 2 14 9 25 15 25 6 0 14 3 18 7 4 4 12 4 18 -1 6 -5 19 -7 29 -6z m-177
-50 c-3 -9 -10 -13 -16 -10 -5 3 -10 1 -10 -6 0 -24 -12 0 -16 33 -3 24 -1 28
5 13 8 -19 8 -19 16 5 l8 25 10 -22 c5 -12 7 -29 3 -38z"/>
<path d="M1083 2302 c-9 -15 -8 -19 3 -19 8 0 14 9 14 19 0 10 -1 18 -3 18 -1
0 -7 -8 -14 -18z"/>
<path d="M588 2338 c0 -7 -2 -17 -2 -23 -3 -19 -17 -35 -27 -30 -5 4 -9 -4 -9
-17 0 -18 2 -20 10 -8 5 8 15 15 22 15 8 0 13 14 14 38 1 35 -4 52 -8 25z"/>
<path d="M606 2335 c-3 -8 -1 -26 4 -40 5 -14 7 -31 4 -38 -3 -8 1 -19 9 -26
11 -9 17 -8 27 4 16 20 23 81 11 102 -6 12 -8 5 -6 -23 1 -21 -1 -48 -3 -58
-5 -18 -6 -17 -15 5 -6 13 -11 27 -12 32 -2 4 -4 10 -5 15 -1 4 -2 15 -1 25 3
21 -5 22 -13 2z"/>
<path d="M627 2330 c-3 -11 -1 -23 4 -26 5 -3 7 -9 4 -14 -3 -5 -1 -11 3 -14
10 -6 9 60 0 69 -3 3 -8 -3 -11 -15z"/>
<path d="M375 2330 c-2 -4 -2 -24 2 -44 4 -24 9 -33 14 -25 4 7 4 20 -1 29 -6
10 -4 21 6 31 12 14 12 16 -1 16 -9 0 -18 -3 -20 -7z"/>
<path d="M323 2293 c-8 -22 -17 -31 -30 -29 -10 2 -21 -4 -25 -13 -6 -14 -7
-14 -7 1 -1 11 -8 16 -20 13 -24 -5 -48 20 -30 31 8 5 10 3 4 -7 -5 -8 -5 -11
0 -7 4 4 14 3 22 -3 10 -9 13 -8 13 5 0 9 -3 15 -7 15 -5 -1 -10 0 -13 1 -17
6 -40 7 -40 2 1 -30 14 -50 31 -47 10 2 21 -1 25 -6 9 -15 -16 -39 -34 -32
-15 6 -15 5 -3 -11 13 -16 17 -14 51 19 27 26 40 33 45 25 9 -14 38 46 32 64
-2 6 -8 -4 -14 -21z"/>
<path d="M736 2284 c20 -29 30 -37 32 -25 8 42 13 47 27 27 8 -10 12 -23 9
-28 -8 -12 16 -39 27 -32 5 3 7 10 3 15 -3 5 -9 7 -14 4 -4 -3 -8 1 -7 8 1 35
-4 58 -12 52 -5 -3 -12 -1 -16 5 -10 15 -25 2 -26 -23 -1 -20 -2 -20 -9 3 -4
14 -8 21 -9 16 -1 -5 -8 -2 -18 5 -9 8 -3 -5 13 -27z"/>
<path d="M827 2313 c-19 -18 22 -101 43 -88 5 3 12 0 16 -6 4 -8 3 -9 -4 -5
-6 3 -16 -2 -22 -13 -7 -13 -7 -22 0 -26 10 -6 14 1 11 18 -1 5 3 6 8 3 5 -3
13 0 18 7 7 8 3 23 -14 46 -12 19 -23 30 -23 26 0 -4 -7 -2 -15 5 -9 7 -14 19
-11 27 6 14 3 17 -7 6z m21 -58 c-3 -3 -9 2 -12 12 -6 14 -5 15 5 6 7 -7 10
-15 7 -18z"/>
<path d="M267 2303 c-15 -14 -6 -29 18 -29 15 0 25 6 25 15 0 8 -3 11 -7 8 -3
-4 -11 -2 -18 3 -7 5 -15 7 -18 3z"/>
<path d="M1029 2228 c-7 -27 -4 -39 11 -53 10 -9 21 -12 24 -7 3 5 -1 15 -9
22 -8 7 -13 16 -10 20 3 5 1 11 -5 15 -5 3 -10 5 -11 3z"/>
<path d="M1086 2211 c-4 -5 -2 -12 3 -15 5 -4 12 -2 15 3 4 5 2 12 -3 15 -5 4
-12 2 -15 -3z"/>
<path d="M493 2403 c4 -3 1 -13 -6 -22 -10 -14 -10 -14 4 -4 9 7 20 9 25 5 4
-4 2 1 -5 11 -7 9 -16 17 -19 17 -3 0 -2 -3 1 -7z"/>
<path d="M1276 2481 c-3 -4 5 -18 19 -31 14 -13 21 -29 18 -39 -4 -14 -3 -14
6 -1 8 11 4 21 -15 41 -13 14 -21 28 -17 32 3 4 4 7 0 7 -3 0 -8 -4 -11 -9z"/>
<path d="M1344 2429 c-3 -6 -2 -15 3 -20 5 -5 9 -1 9 11 0 23 -2 24 -12 9z"/>
<path d="M1119 2443 c0 -5 -2 -16 -4 -26 -2 -11 -1 -16 3 -13 8 8 14 46 7 46
-3 0 -5 -3 -6 -7z"/>
<path d="M2953 2408 c-21 -27 -23 -36 -8 -34 8 1 18 5 21 9 4 4 13 2 20 -4 13
-10 32 6 20 18 -3 4 -6 0 -6 -8 0 -9 -7 -5 -18 9 -15 19 -20 21 -29 10z m9
-20 c-7 -7 -12 -8 -12 -2 0 14 12 26 19 19 2 -3 -1 -11 -7 -17z"/>
<path d="M2915 2389 c-4 -6 -5 -12 -2 -15 2 -3 7 2 10 11 7 17 1 20 -8 4z"/>
<path d="M3026 2387 c3 -10 9 -15 12 -12 3 3 0 11 -7 18 -10 9 -11 8 -5 -6z"/>
<path d="M3057 2387 c-3 -8 1 -14 8 -14 7 0 11 6 8 14 -3 7 -6 13 -8 13 -2 0
-5 -6 -8 -13z"/>
<path d="M286 2211 c-4 -5 -2 -12 3 -15 5 -4 12 -2 15 3 4 5 2 12 -3 15 -5 4
-12 2 -15 -3z"/>
<path d="M496 2211 c-4 -5 -2 -12 3 -15 5 -4 12 -2 15 3 4 5 2 12 -3 15 -5 4
-12 2 -15 -3z"/>
<path d="M776 2211 c-4 -5 -2 -12 3 -15 5 -4 12 -2 15 3 4 5 2 12 -3 15 -5 4
-12 2 -15 -3z"/>
<path d="M2909 2216 c-1 -3 -2 -9 -3 -13 -1 -5 -5 -13 -9 -20 -4 -6 -3 -14 3
-18 5 -3 11 -4 11 -1 1 3 2 9 3 14 1 4 5 12 9 19 4 6 3 14 -3 18 -5 3 -11 4
-11 1z"/>
<path d="M3306 2191 c-4 -5 -2 -12 3 -15 5 -4 12 -2 15 3 4 5 2 12 -3 15 -5 4
-12 2 -15 -3z"/>
<path d="M946 2181 c-4 -5 -2 -12 3 -15 5 -4 12 -2 15 3 4 5 2 12 -3 15 -5 4
-12 2 -15 -3z"/>
<path d="M2025 2800 c-4 -6 -11 -8 -16 -5 -5 4 -9 1 -9 -4 0 -14 2 -14 36 4
18 9 23 15 12 15 -9 0 -20 -5 -23 -10z"/>
<path d="M1960 2770 c0 -5 7 -7 15 -4 8 4 15 8 15 10 0 2 -7 4 -15 4 -8 0 -15
-4 -15 -10z"/>
<path d="M1916 2755 c-15 -8 -33 -12 -39 -8 -5 3 -7 1 -4 -4 8 -12 -20 -26
-34 -18 -5 4 -6 -1 -3 -9 4 -12 15 -9 57 12 65 34 61 31 56 37 -3 2 -18 -2
-33 -10z"/>
<path d="M286 2642 c1 -15 3 -29 4 -32 1 -3 2 -9 1 -13 -1 -5 3 -6 9 -2 7 4 8
11 2 18 -5 7 -8 20 -7 29 2 10 0 20 -4 23 -4 2 -7 -8 -5 -23z"/>
<path d="M524 2645 c0 -13 3 -22 7 -19 8 4 6 30 -2 38 -3 3 -5 -5 -5 -19z"/>
<path d="M669 2657 c6 -8 7 -18 3 -22 -4 -5 -1 -5 6 -1 10 6 10 11 1 22 -6 8
-14 14 -16 14 -3 0 0 -6 6 -13z"/>
<path d="M849 2657 c6 -8 7 -18 3 -22 -4 -5 -1 -5 6 -1 10 6 10 11 1 22 -6 8
-14 14 -16 14 -3 0 0 -6 6 -13z"/>
<path d="M1029 2657 c6 -8 7 -18 3 -22 -4 -5 -1 -5 6 -1 10 6 10 11 1 22 -6 8
-14 14 -16 14 -3 0 0 -6 6 -13z"/>
<path d="M1215 2650 c10 -11 20 -20 23 -20 3 0 -3 9 -13 20 -10 11 -20 20 -23
20 -3 0 3 -9 13 -20z"/>
<path d="M1389 2657 c6 -8 7 -18 3 -22 -4 -5 -1 -5 6 -1 10 6 10 11 1 22 -6 8
-14 14 -16 14 -3 0 0 -6 6 -13z"/>
<path d="M1566 2660 c5 -8 9 -18 9 -22 0 -3 3 -9 7 -13 3 -4 5 0 4 9 -1 9 -8
22 -16 29 -10 10 -11 9 -4 -3z"/>
<path d="M2873 2655 c0 -8 4 -12 9 -9 5 3 6 10 3 15 -9 13 -12 11 -12 -6z"/>
<path d="M3029 2668 c-5 -18 -6 -38 -1 -34 7 8 12 36 6 36 -2 0 -4 -1 -5 -2z"/>
<path d="M3079 2653 c-13 -16 -12 -17 4 -4 9 7 17 15 17 17 0 8 -8 3 -21 -13z"/>
<path d="M3285 2661 c-3 -5 -2 -12 3 -15 5 -3 9 1 9 9 0 17 -3 19 -12 6z"/>
<path d="M3349 2657 c6 -8 7 -18 3 -22 -4 -5 -1 -5 6 -1 10 6 10 11 1 22 -6 8
-14 14 -16 14 -3 0 0 -6 6 -13z"/>
<path d="M219 2643 c-13 -16 -12 -17 4 -4 9 7 17 15 17 17 0 8 -8 3 -21 -13z"/>
<path d="M353 2645 c0 -8 4 -12 9 -9 5 3 6 10 3 15 -9 13 -12 11 -12 -6z"/>
<path d="M446 2648 c3 -5 10 -6 15 -3 13 9 11 12 -6 12 -8 0 -12 -4 -9 -9z"/>
<path d="M585 2640 c8 -9 12 -21 8 -25 -5 -5 0 -3 10 4 20 16 22 22 5 19 -7
-2 -12 2 -11 8 1 6 -5 11 -13 11 -12 0 -12 -3 1 -17z"/>
<path d="M1109 2646 c4 -6 7 -24 6 -39 -1 -15 1 -29 4 -32 4 -2 7 16 7 39 0
28 -5 43 -13 43 -8 0 -9 -5 -4 -11z"/>
<path d="M2939 2658 c-5 -18 -6 -38 -1 -34 7 8 12 36 6 36 -2 0 -4 -1 -5 -2z"/>
<path d="M3113 2643 c0 -9 4 -10 14 -2 7 6 13 12 13 14 0 1 -6 2 -13 2 -8 0
-14 -6 -14 -14z"/>
<path d="M3249 2643 c-13 -16 -12 -17 4 -4 9 7 17 15 17 17 0 8 -8 3 -21 -13z"/>
<path d="M423 2635 c0 -8 4 -12 9 -9 5 3 6 10 3 15 -9 13 -12 11 -12 -6z"/>
<path d="M1196 2640 c5 -8 9 -18 9 -22 0 -3 3 -9 7 -13 3 -4 5 0 4 9 -1 9 -8
22 -16 29 -10 10 -11 9 -4 -3z"/>
<path d="M2962 2645 c4 -4 3 -14 -3 -21 -7 -9 -6 -14 3 -20 7 -4 10 -4 6 1 -4
4 -3 14 3 21 7 9 6 14 -3 20 -7 4 -10 4 -6 -1z"/>
<path d="M2995 2641 c-3 -5 -2 -12 3 -15 5 -3 9 1 9 9 0 17 -3 19 -12 6z"/>
<path d="M318 2626 c4 -6 7 -14 7 -18 0 -19 11 -14 11 6 0 12 -6 23 -13 23 -6
0 -9 -5 -5 -11z"/>
<path d="M470 2631 c0 -6 4 -13 10 -16 6 -3 7 1 4 9 -7 18 -14 21 -14 7z"/>
<path d="M726 2628 c3 -5 10 -6 15 -3 13 9 11 12 -6 12 -8 0 -12 -4 -9 -9z"/>
<path d="M760 2635 c0 -2 6 -8 13 -14 10 -8 14 -7 14 2 0 8 -6 14 -14 14 -7 0
-13 -1 -13 -2z"/>
<path d="M906 2628 c3 -5 10 -6 15 -3 13 9 11 12 -6 12 -8 0 -12 -4 -9 -9z"/>
<path d="M940 2635 c0 -2 6 -8 13 -14 10 -8 14 -7 14 2 0 8 -6 14 -14 14 -7 0
-13 -1 -13 -2z"/>
<path d="M1273 2623 c0 -9 4 -10 14 -2 7 6 13 12 13 14 0 1 -6 2 -13 2 -8 0
-14 -6 -14 -14z"/>
<path d="M1310 2635 c0 -2 6 -8 13 -14 10 -8 14 -7 14 2 0 8 -6 14 -14 14 -7
0 -13 -1 -13 -2z"/>
<path d="M1415 2631 c-3 -5 -1 -12 5 -16 6 -4 7 -11 4 -17 -4 -7 -2 -8 5 -4 8
6 9 12 2 20 -6 7 -8 16 -4 19 3 4 4 7 0 7 -3 0 -8 -4 -12 -9z"/>
<path d="M1450 2625 c5 -7 6 -16 2 -21 -4 -5 -3 -5 2 -1 15 12 15 34 0 34 -9
0 -11 -4 -4 -12z"/>
<path d="M1603 2623 c0 -9 4 -10 14 -2 7 6 13 12 13 14 0 1 -6 2 -13 2 -8 0
-14 -6 -14 -14z"/>
<path d="M2885 2631 c-3 -5 -2 -12 3 -15 5 -3 9 1 9 9 0 17 -3 19 -12 6z"/>
<path d="M3089 2638 c-5 -18 -6 -38 -1 -34 7 8 12 36 6 36 -2 0 -4 -1 -5 -2z"/>
<path d="M3203 2623 c0 -9 4 -10 14 -2 7 6 13 12 13 14 0 1 -6 2 -13 2 -8 0
-14 -6 -14 -14z"/>
<path d="M3259 2623 c-13 -16 -12 -17 4 -4 16 13 21 21 13 21 -2 0 -10 -8 -17
-17z"/>
<path d="M399 2625 c-1 -3 -2 -8 -3 -12 -1 -5 -5 -13 -9 -20 -4 -6 -3 -15 3
-18 6 -4 10 -3 9 2 -1 4 0 10 1 13 5 13 8 40 4 40 -2 0 -5 -2 -5 -5z"/>
<path d="M566 2621 c-3 -5 2 -15 12 -22 15 -12 16 -12 5 2 -7 9 -10 19 -6 22
3 4 4 7 0 7 -3 0 -8 -4 -11 -9z"/>
<path d="M645 2621 c-3 -5 -2 -12 3 -15 5 -3 9 1 9 9 0 17 -3 19 -12 6z"/>
<path d="M1163 2613 c0 -9 4 -10 14 -2 7 6 13 12 13 14 0 1 -6 2 -13 2 -8 0
-14 -6 -14 -14z"/>
<path d="M1553 2615 c0 -8 4 -12 9 -9 5 3 6 10 3 15 -9 13 -12 11 -12 -6z"/>
<path d="M3176 2621 c-3 -5 2 -15 12 -22 15 -12 16 -12 5 2 -7 9 -10 19 -6 22
3 4 4 7 0 7 -3 0 -8 -4 -11 -9z"/>
<path d="M3319 2613 c-13 -16 -12 -17 4 -4 16 13 21 21 13 21 -2 0 -10 -8 -17
-17z"/>
<path d="M539 2618 c-8 -21 -2 -61 10 -71 14 -10 14 -10 5 3 -6 8 -10 27 -9
43 2 22 -2 35 -6 25z"/>
<path d="M615 2611 c-3 -5 -2 -12 3 -15 5 -3 9 1 9 9 0 17 -3 19 -12 6z"/>
<path d="M671 2613 c1 -4 0 -11 -1 -15 -1 -5 -3 -14 -4 -20 -1 -7 -7 -12 -14
-10 -17 3 -15 -3 6 -19 9 -7 14 -9 10 -5 -4 5 -3 15 3 23 6 7 8 13 4 13 -4 0
-2 6 4 14 8 10 9 16 1 21 -6 4 -10 3 -9 -2z"/>
<path d="M753 2605 c0 -8 4 -12 9 -9 5 3 6 10 3 15 -9 13 -12 11 -12 -6z"/>
<path d="M881 2606 c-9 -11 -9 -16 1 -22 7 -4 10 -4 6 1 -4 4 -3 14 3 22 6 7
9 13 6 13 -2 0 -10 -6 -16 -14z"/>
<path d="M933 2605 c0 -8 4 -12 9 -9 5 3 6 10 3 15 -9 13 -12 11 -12 -6z"/>
<path d="M1059 2603 c-13 -16 -12 -17 4 -4 9 7 17 15 17 17 0 8 -8 3 -21 -13z"/>
<path d="M1234 2604 c1 -8 4 -15 7 -16 2 -2 3 -1 2 1 -2 2 2 9 7 16 7 8 5 12
-4 12 -8 0 -13 -6 -12 -13z"/>
<path d="M1304 2606 c1 -8 5 -18 8 -22 4 -3 5 1 4 10 -1 8 -5 18 -8 22 -4 3
-5 -1 -4 -10z"/>
<path d="M1359 2607 c6 -8 7 -18 3 -22 -4 -5 -1 -5 6 -1 10 6 10 11 1 22 -6 8
-14 14 -16 14 -3 0 0 -6 6 -13z"/>
<path d="M3020 2611 c0 -6 4 -13 10 -16 6 -3 7 1 4 9 -7 18 -14 21 -14 7z"/>
<path d="M3149 2618 c-5 -18 -6 -38 -1 -34 7 8 12 36 6 36 -2 0 -4 -1 -5 -2z"/>
<path d="M3226 2611 c-3 -5 1 -14 8 -20 10 -9 16 -9 21 -1 4 6 1 9 -7 8 -7 -2
-12 3 -10 10 2 14 -4 16 -12 3z"/>
<path d="M3341 2606 c-9 -11 -9 -16 1 -22 7 -4 10 -4 6 1 -4 4 -3 14 3 22 6 7
9 13 6 13 -2 0 -10 -6 -16 -14z"/>
<path d="M421 2603 c1 -4 0 -10 -1 -13 -7 -18 -7 -41 0 -45 5 -3 7 3 5 12 -1
10 2 23 7 30 6 7 5 14 -2 18 -6 4 -10 3 -9 -2z"/>
<path d="M455 2601 c-3 -5 -2 -12 3 -15 5 -3 9 1 9 9 0 17 -3 19 -12 6z"/>
<path d="M725 2600 c-3 -5 -3 -10 1 -10 4 0 -1 -9 -10 -19 -14 -15 -15 -21 -4
-27 7 -4 10 -4 6 1 -4 4 -2 15 4 23 12 13 20 42 13 42 -2 0 -7 -4 -10 -10z"/>
<path d="M909 2608 c-5 -18 -6 -38 -1 -34 7 8 12 36 6 36 -2 0 -4 -1 -5 -2z"/>
<path d="M1079 2593 c-13 -16 -12 -17 4 -4 9 7 17 15 17 17 0 8 -8 3 -21 -13z"/>
<path d="M1395 2601 c-3 -5 -2 -12 3 -15 5 -3 9 1 9 9 0 17 -3 19 -12 6z"/>
<path d="M1469 2593 c-13 -16 -12 -17 4 -4 16 13 21 21 13 21 -2 0 -10 -8 -17
-17z"/>
<path d="M1579 2608 c-5 -18 -6 -38 -1 -34 7 8 12 36 6 36 -2 0 -4 -1 -5 -2z"/>
<path d="M2933 2595 c0 -8 4 -12 9 -9 5 3 6 10 3 15 -9 13 -12 11 -12 -6z"/>
<path d="M1333 2585 c0 -8 4 -12 9 -9 5 3 6 10 3 15 -9 13 -12 11 -12 -6z"/>
<path d="M2983 2585 c0 -8 4 -12 9 -9 5 3 6 10 3 15 -9 13 -12 11 -12 -6z"/>
<path d="M1215 2573 c2 -10 4 -20 5 -23 1 -3 2 -9 1 -13 -1 -5 3 -6 9 -2 8 5
7 12 -2 22 -7 9 -11 18 -10 20 2 3 1 7 -1 10 -3 3 -4 -3 -2 -14z"/>
<path d="M3315 2573 c2 -10 4 -20 5 -23 1 -3 1 -9 0 -15 -1 -5 10 1 24 14 30
29 36 43 6 16 -11 -10 -21 -15 -21 -12 -1 4 -2 11 -3 16 0 5 -4 12 -8 16 -3 4
-5 -1 -3 -12z"/>
<path d="M754 2566 c1 -8 5 -18 8 -22 4 -3 5 1 4 10 -1 8 -5 18 -8 22 -4 3 -5
-1 -4 -10z"/>
<path d="M919 2563 c-13 -16 -12 -17 4 -4 9 7 17 15 17 17 0 8 -8 3 -21 -13z"/>
<path d="M2809 2578 c-5 -18 -6 -38 -1 -34 7 8 12 36 6 36 -2 0 -4 -1 -5 -2z"/>
<path d="M373 2553 c1 -17 4 -19 14 -11 15 12 18 22 4 14 -5 -4 -11 0 -14 6
-3 7 -4 3 -4 -9z"/>
<path d="M2799 2513 c-1 -5 -2 -15 -3 -23 0 -8 -7 -14 -14 -12 -8 1 -11 -6 -8
-23 3 -13 1 -27 -3 -29 -11 -7 -7 -42 7 -59 10 -11 9 -17 -2 -26 -11 -9 -13
-19 -5 -38 5 -13 6 -30 2 -36 -3 -7 -3 -9 2 -5 4 4 14 3 21 -3 18 -15 29 11
20 45 -3 14 -2 27 3 30 15 10 34 -23 33 -57 -1 -39 15 -62 34 -46 7 6 11 16 8
24 -13 32 16 20 50 -21 21 -24 34 -43 29 -42 -4 2 -8 -1 -8 -7 0 -5 4 -9 8 -7
5 1 6 -2 3 -7 -3 -5 1 -14 8 -20 19 -16 32 5 16 24 -7 8 -9 15 -5 15 4 0 -5
14 -19 31 -29 34 -30 38 -17 59 6 8 7 19 3 24 -3 6 -9 0 -13 -14 -7 -25 -7
-25 -8 -2 -1 13 -5 21 -11 17 -5 -3 -6 -13 -3 -23 5 -14 3 -14 -9 2 -14 17
-15 17 -21 2 -4 -10 -11 -14 -17 -11 -13 8 -13 -8 0 -21 7 -7 6 -11 -3 -11 -9
0 -13 14 -13 47 0 29 5 47 12 47 7 0 10 -7 7 -16 -4 -14 -3 -14 9 1 13 15 15
15 27 0 10 -14 11 -15 7 -1 -2 9 2 16 9 16 7 0 11 -7 9 -16 -4 -14 -3 -13 7 1
12 15 14 15 27 0 12 -15 13 -15 9 -1 -3 9 1 16 8 16 7 0 11 -7 8 -16 -4 -14
-3 -14 9 1 13 15 15 15 27 0 10 -14 11 -15 7 -1 -2 9 2 16 9 16 7 0 11 -7 8
-16 -4 -14 -3 -14 9 1 13 15 15 15 27 0 10 -14 11 -15 7 -1 -2 9 2 16 9 16 7
0 11 -6 8 -13 -2 -6 1 -15 7 -19 7 -4 10 -1 8 7 -2 7 2 14 7 15 6 1 9 -5 7
-14 -2 -9 1 -12 8 -8 6 4 9 14 6 24 -6 15 -5 15 7 -1 12 -15 14 -15 25 0 11
15 12 15 4 -2 -5 -10 -8 -28 -5 -40 3 -20 3 -20 -6 -1 -10 21 -12 19 -16 -15
-1 -11 -4 -23 -5 -27 -1 -5 -2 -12 -1 -17 1 -5 -5 -4 -13 4 -9 7 -16 18 -16
26 0 8 -8 11 -20 9 -11 -2 -18 0 -15 5 3 5 1 11 -4 14 -5 4 -11 1 -14 -6 -2
-7 -3 -5 -2 4 5 30 -12 30 -18 0 -6 -32 0 -46 16 -34 19 14 34 9 56 -20 20
-25 42 -31 57 -15 4 3 2 13 -5 20 -9 11 -8 17 4 27 12 10 16 9 21 -4 7 -19 24
-11 24 12 0 14 -2 14 -9 3 -12 -19 -25 22 -15 51 l6 21 15 -24 c12 -21 14 -21
10 -3 -2 12 1 21 8 21 7 0 10 -8 7 -20 -3 -14 -1 -18 7 -13 6 4 9 11 6 16 -3
5 -1 11 4 14 5 4 8 -2 6 -11 -2 -10 -4 -18 -5 -18 -1 0 -3 -13 -5 -30 -2 -23
-1 -26 5 -10 5 11 11 28 14 39 5 15 9 16 21 6 8 -7 12 -16 9 -21 -3 -5 -2 -19
2 -32 6 -19 10 -14 25 33 22 67 23 72 3 40 -11 -19 -14 -20 -9 -5 5 20 1 20
-266 20 -149 0 -273 3 -276 8 -8 14 -11 111 -3 122 4 6 7 18 7 28 0 17 -6 24
-8 10z m-12 -130 c-3 -10 -5 -2 -5 17 0 19 2 27 5 18 2 -10 2 -26 0 -35z m19
-45 c4 -7 3 -8 -4 -4 -7 4 -12 3 -12 -3 0 -5 4 -12 9 -15 5 -3 9 -17 9 -31 0
-24 -2 -24 -13 -8 -10 14 -14 56 -6 71 3 5 10 1 17 -10z m527 -18 c3 -11 1
-18 -4 -14 -5 3 -9 12 -9 20 0 20 7 17 13 -6z"/>
<path d="M3392 2317 c-12 -34 -16 -64 -7 -55 3 3 8 16 10 28 3 13 10 28 16 34
9 8 10 8 5 -2 -4 -7 -2 -20 5 -28 9 -12 10 -17 0 -27 -10 -9 -11 -8 -5 7 5 14
4 17 -5 12 -16 -11 -9 -29 13 -32 15 -2 17 2 12 24 -4 15 -8 33 -9 40 -8 31
-23 31 -35 -1z"/>
<path d="M101 2304 c0 -11 3 -14 6 -6 3 7 2 16 -1 19 -3 4 -6 -2 -5 -13z"/>
<path d="M2895 2310 c-4 -6 -11 -8 -16 -5 -5 4 -9 2 -9 -4 0 -17 18 -21 24 -5
3 8 11 12 17 8 8 -4 9 -3 5 4 -9 15 -13 15 -21 2z"/>
<path d="M2967 2309 c7 -9 10 -19 7 -22 -3 -3 4 -20 17 -38 l22 -32 24 27 c22
26 33 73 14 61 -5 -3 -12 -1 -16 5 -12 19 -25 -1 -26 -38 l-2 -37 -7 40 c-4
22 -8 36 -9 31 0 -5 -9 -2 -18 5 -16 12 -17 12 -6 -2z m70 -49 c-14 -20 -15
-20 -14 14 1 31 3 34 15 22 12 -12 12 -17 -1 -36z"/>
<path d="M3099 2297 c26 -29 38 -29 27 -1 -4 9 -9 14 -13 11 -3 -4 -13 -1 -22
5 -9 7 -5 0 8 -15z"/>
<path d="M3220 2302 c0 -13 4 -20 10 -17 6 3 14 -4 18 -16 8 -20 9 -20 15 -5
8 20 0 39 -13 31 -5 -3 -13 3 -19 12 -9 16 -10 16 -11 -5z"/>
<path d="M3492 2300 c0 -14 2 -19 5 -12 2 6 2 18 0 25 -3 6 -5 1 -5 -13z"/>
<path d="M3165 2300 c-4 -6 -11 -8 -16 -5 -11 7 -11 -13 1 -40 9 -20 11 -18
14 13 1 9 5 23 9 30 5 6 6 12 3 12 -3 0 -8 -5 -11 -10z"/>
<path d="M3416 2181 c-10 -11 -13 -22 -8 -25 5 -3 17 3 26 13 10 11 13 22 8
25 -5 3 -17 -3 -26 -13z"/>
<path d="M3495 1721 c-3 -5 -2 -12 3 -15 5 -3 9 1 9 9 0 17 -3 19 -12 6z"/>
<path d="M102 1370 c0 -19 2 -27 5 -17 2 9 2 25 0 35 -3 9 -5 1 -5 -18z"/>
<path d="M3461 1144 c0 -11 3 -14 6 -6 3 7 2 16 -1 19 -3 4 -6 -2 -5 -13z"/>
</g>
</svg>
