<svg xmlns="http://www.w3.org/2000/svg" width="446" height="556" viewBox="0 0 446 556" version="1.1"><path d="M 217.250 36.689 C 218.213 36.941, 219.787 36.941, 220.750 36.689 C 221.713 36.438, 220.925 36.232, 219 36.232 C 217.075 36.232, 216.287 36.438, 217.250 36.689 M 205.250 37.689 C 206.213 37.941, 207.787 37.941, 208.750 37.689 C 209.713 37.438, 208.925 37.232, 207 37.232 C 205.075 37.232, 204.287 37.438, 205.250 37.689 M 232.500 38.448 C 235.800 39.137, 239.850 40.056, 241.500 40.491 C 243.150 40.926, 244.183 40.939, 243.796 40.520 C 242.839 39.485, 232.097 37.012, 229 37.114 C 227.625 37.159, 229.200 37.759, 232.500 38.448 M 196.140 39.147 C 194.293 39.679, 192.958 40.291, 193.175 40.508 C 193.392 40.725, 195.804 40.290, 198.535 39.541 C 201.266 38.792, 202.600 38.179, 201.500 38.180 C 200.400 38.180, 197.988 38.615, 196.140 39.147 M 248.020 42.313 C 248.794 43.147, 258 47.001, 258 46.490 C 258 46.249, 256.762 45.422, 255.250 44.652 C 252.093 43.046, 247.246 41.478, 248.020 42.313 M 181.750 44.572 C 177.873 46.675, 178.312 47.401, 182.250 45.399 C 186.020 43.481, 186.687 42.985, 185.417 43.040 C 184.912 43.062, 183.262 43.751, 181.750 44.572 M 173.250 48.989 C 171.463 50.079, 170 51.239, 170 51.567 C 170 52.038, 176.016 48.815, 177.917 47.326 C 179.485 46.098, 175.892 47.378, 173.250 48.989 M 261 48.376 C 261 48.610, 262.602 49.748, 264.560 50.903 C 266.518 52.058, 267.840 52.549, 267.497 51.995 C 266.827 50.911, 261 47.665, 261 48.376 M 162.263 56.462 C 155.731 61.372, 137.804 79.559, 134.100 85.032 C 132.634 87.198, 133.383 86.623, 136.093 83.500 C 144.853 73.407, 155.653 62.664, 161.500 58.228 C 168.639 52.812, 169.591 52, 168.799 52 C 168.469 52, 165.527 54.008, 162.263 56.462 M 269 53.277 C 269 53.468, 270.462 54.695, 272.250 56.003 C 274.261 57.475, 274.960 57.717, 274.082 56.637 C 272.751 54.997, 269 52.517, 269 53.277 M 284.044 65.741 C 288.743 70.163, 295.462 77.430, 298.975 81.891 C 306.043 90.863, 307.933 92.554, 302.812 85.323 C 298.600 79.375, 282.637 62.560, 278.584 59.800 C 276.888 58.646, 279.345 61.319, 284.044 65.741 M 125.350 97.510 C 122.235 102.190, 119.870 106.194, 120.093 106.407 C 120.317 106.620, 123.067 102.791, 126.204 97.897 C 129.341 93.004, 131.706 89, 131.460 89 C 131.214 89, 128.465 92.829, 125.350 97.510 M 307.511 93.377 C 308.457 94.820, 309.419 96, 309.650 96 C 310.374 96, 308.045 92.146, 306.891 91.433 C 306.287 91.059, 306.566 91.934, 307.511 93.377 M 315.494 105.949 C 318.522 111.145, 321 115.833, 321 116.365 C 321 116.898, 321.272 117.061, 321.604 116.729 C 322.304 116.030, 314.898 102.275, 311.966 98.826 C 310.878 97.547, 312.465 100.752, 315.494 105.949 M 118.247 109.250 C 116.774 111.097, 113.801 117.134, 114.179 117.513 C 114.359 117.692, 115.742 115.625, 117.253 112.920 C 119.906 108.167, 120.315 106.659, 118.247 109.250 M 324.202 122.478 C 325.398 124.941, 326.549 126.785, 326.758 126.575 C 327.211 126.123, 323.170 118, 322.493 118 C 322.236 118, 323.005 120.015, 324.202 122.478 M 111.452 122.093 C 110.572 123.794, 110.030 125.363, 110.247 125.580 C 110.464 125.797, 111.390 124.406, 112.305 122.487 C 114.361 118.175, 113.649 117.845, 111.452 122.093 M 328.519 131.699 C 330.017 135.286, 331 136.905, 331 135.789 C 331 134.710, 327.962 128, 327.473 128 C 327.198 128, 327.669 129.664, 328.519 131.699 M 105.583 135.083 C 104.666 137.375, 104.104 139.437, 104.333 139.666 C 104.562 139.895, 105.500 138.208, 106.417 135.917 C 107.334 133.625, 107.896 131.563, 107.667 131.334 C 107.438 131.105, 106.500 132.792, 105.583 135.083 M 333.579 144 C 333.944 145.375, 334.624 147.175, 335.091 148 C 335.845 149.333, 335.939 149.333, 335.934 148 C 335.931 147.175, 335.251 145.375, 334.423 144 L 332.917 141.500 333.579 144 M 100.116 149.098 C 99.502 150.858, 99.032 152.794, 99.070 153.399 C 99.109 154.005, 99.786 152.739, 100.574 150.587 C 101.363 148.435, 101.833 146.500, 101.620 146.286 C 101.406 146.073, 100.729 147.338, 100.116 149.098 M 338.338 157.437 C 338.641 158.228, 339.394 160.748, 340.010 163.038 C 340.627 165.328, 341.325 167.008, 341.562 166.771 C 342.130 166.204, 339.090 156, 338.354 156 C 338.042 156, 338.034 156.647, 338.338 157.437 M 95 165 C 94.378 167.311, 94.064 169.398, 94.304 169.637 C 94.543 169.876, 95.224 168.158, 95.818 165.818 C 96.412 163.479, 96.725 161.392, 96.515 161.181 C 96.304 160.971, 95.622 162.689, 95 165 M 217.500 173.937 C 190.075 180.582, 156.415 224.115, 117.707 303 C 105.865 327.134, 101.839 335.987, 92.011 359.500 C 85.023 376.220, 82.866 382.863, 83.192 386.658 L 83.500 390.250 94.922 376.476 L 106.343 362.702 111.117 348.101 C 119.950 321.087, 128.678 300.599, 141.191 277.500 C 173.678 217.532, 202.765 183.487, 221.500 183.505 C 229.174 183.512, 235.083 187.039, 246.580 198.474 C 258.013 209.846, 266.909 221.918, 280.656 244.713 C 290.735 261.428, 313.183 306.068, 322.034 327 C 324.942 333.875, 327.867 340.175, 328.535 341 C 329.204 341.825, 330.471 346.459, 331.352 351.298 C 332.233 356.136, 333.526 360.879, 334.227 361.837 C 334.927 362.794, 337.965 366.626, 340.979 370.350 L 346.457 377.123 347.258 374.311 C 348.558 369.746, 347.228 364.015, 341.584 349.858 C 324.338 306.606, 302.149 261.294, 284.241 232.758 C 272.075 213.372, 264.682 203.659, 253.513 192.385 C 244.349 183.137, 241.240 180.672, 235 177.708 C 226.824 173.826, 222.132 172.815, 217.500 173.937 M 344.559 179.185 C 344.940 180.387, 345.893 182.750, 346.676 184.435 C 348.031 187.354, 348.072 187.371, 347.542 184.794 C 346.770 181.048, 345.168 177, 344.457 177 C 344.132 177, 344.177 177.983, 344.559 179.185 M 89.111 184.111 C 88.495 185.878, 88.166 187.499, 88.380 187.713 C 88.594 187.927, 89.273 186.656, 89.889 184.889 C 90.505 183.122, 90.834 181.501, 90.620 181.287 C 90.406 181.073, 89.727 182.344, 89.111 184.111 M 349.579 193.250 C 351.498 199.301, 353.862 205.386, 353.927 204.444 C 354.027 203, 349.933 191, 349.341 191 C 349.079 191, 349.186 192.012, 349.579 193.250 M 84.111 199.138 C 82.950 202.576, 82.033 205.863, 82.074 206.444 C 82.115 207.025, 83.237 204.384, 84.567 200.576 C 85.898 196.768, 86.814 193.480, 86.604 193.270 C 86.393 193.060, 85.272 195.701, 84.111 199.138 M 355.078 210.250 C 355.179 211.894, 358.822 221.751, 358.922 220.654 C 359.039 219.387, 355.925 209, 355.429 209 C 355.193 209, 355.035 209.563, 355.078 210.250 M 78.091 218.091 C 77.415 220.348, 77.045 222.379, 77.270 222.604 C 77.495 222.829, 78.233 221.166, 78.909 218.909 C 79.585 216.652, 79.955 214.621, 79.730 214.396 C 79.505 214.171, 78.767 215.834, 78.091 218.091 M 216.369 237.250 C 208.679 248.889, 203.097 256.054, 196.699 262.500 C 185.587 273.695, 174.623 289.859, 172.890 297.600 C 171.726 302.801, 171.846 303.643, 175.405 315.281 C 183.676 342.323, 188.037 351.750, 194.361 356.261 C 197.337 358.384, 198.566 358.512, 218 358.730 C 229.275 358.857, 240.604 359.080, 243.175 359.225 C 246.968 359.439, 248.338 359.031, 250.433 357.063 C 254.670 353.082, 270.856 328.205, 275.737 318.170 L 280.279 308.835 279.741 298.667 C 279.175 287.970, 276.768 279.518, 272.883 274.579 C 270.531 271.589, 263.532 266.597, 260.250 265.570 C 258.260 264.947, 258 265.212, 258 267.868 C 258 274.653, 253.046 281.526, 247.390 282.587 C 242.706 283.465, 237.244 281.372, 235.520 278.038 C 233.976 275.053, 232.177 274, 228.618 274 C 227.398 274, 225.860 273.460, 225.200 272.800 C 223.900 271.500, 223.567 261.210, 224.765 259.376 C 225.184 258.736, 228.024 258.293, 231.363 258.346 C 239.682 258.478, 241.058 256.623, 240.563 245.941 C 240.276 239.730, 239.554 236.666, 237.224 231.759 C 234.023 225.021, 230.768 221, 228.514 221 C 227.740 221, 222.275 228.313, 216.369 237.250 M 361.746 233.047 C 362.581 236.359, 363.439 238.895, 363.653 238.681 C 364.270 238.064, 361.925 228.072, 361.034 227.521 C 360.591 227.247, 360.912 229.734, 361.746 233.047 M 73.121 235.649 C 71.230 242.859, 70.718 245.501, 71.318 244.958 C 72.160 244.196, 75.074 232.741, 74.557 232.223 C 74.323 231.990, 73.677 233.531, 73.121 235.649 M 366.661 252.073 C 367.775 257.672, 369.817 264.616, 369.875 263 C 369.947 260.996, 367.287 249.954, 366.557 249.223 C 366.239 248.906, 366.286 250.188, 366.661 252.073 M 68.148 255.649 C 66.553 261.893, 65.727 266.537, 66.307 265.993 C 67.025 265.319, 69.946 252.613, 69.488 252.155 C 69.292 251.959, 68.689 253.531, 68.148 255.649 M 210.187 264.863 C 208.334 266.038, 208.387 271.816, 210.269 273.697 C 211.187 274.616, 212.560 274.999, 213.559 274.616 C 215.147 274.006, 215.153 273.827, 213.636 272.150 C 211.495 269.785, 211.571 269, 213.941 269 C 216.494 269, 217.476 267.279, 215.964 265.456 C 214.623 263.841, 212.193 263.591, 210.187 264.863 M 371.390 273 C 371.673 274.375, 372.444 278.770, 373.102 282.767 C 373.760 286.764, 374.493 289.840, 374.731 289.603 C 375.414 288.919, 372.907 273.664, 371.838 272 C 371.121 270.885, 371.006 271.142, 371.390 273 M 62.676 281.203 C 61.746 284.987, 60.689 294.538, 61.259 294 C 61.911 293.385, 64.065 279.731, 63.585 279.252 C 63.395 279.062, 62.986 279.940, 62.676 281.203 M 60.232 298 C 60.232 299.925, 60.438 300.712, 60.689 299.750 C 60.941 298.788, 60.941 297.212, 60.689 296.250 C 60.438 295.288, 60.232 296.075, 60.232 298 M 211.479 298.022 C 209.886 299.685, 205.924 302.014, 202.673 303.199 C 197.228 305.185, 196.910 305.464, 198.632 306.754 C 200.046 307.813, 202.203 307.987, 207.500 307.468 C 216.572 306.579, 233.605 306.591, 242.544 307.492 C 248.223 308.065, 249.829 307.911, 250.837 306.696 C 251.905 305.410, 251.331 304.939, 246.908 303.469 C 244.059 302.523, 239.953 300.145, 237.784 298.185 C 234.031 294.795, 233.685 294.685, 230.670 295.912 C 225.258 298.115, 223.361 298.238, 220.178 296.592 C 215.903 294.382, 214.792 294.564, 211.479 298.022 M 59.195 306.500 C 59.215 308.150, 59.439 308.704, 59.693 307.731 C 59.947 306.758, 59.930 305.408, 59.656 304.731 C 59.382 304.054, 59.175 304.850, 59.195 306.500 M 377.500 330.985 C 377.500 343.846, 377.784 353.048, 378.132 351.434 C 378.479 349.820, 378.763 340.625, 378.763 331 C 378.763 321.375, 378.479 312.173, 378.132 310.551 C 377.784 308.928, 377.500 318.124, 377.500 330.985 M 213.449 317.344 C 214.852 319.184, 216 321.209, 216 321.844 C 216 323.171, 215.643 323.130, 227.461 323.187 C 233.041 323.215, 236.559 322.823, 236.784 322.149 C 236.982 321.553, 238.224 319.476, 239.542 317.533 L 241.940 314 226.419 314 L 210.898 314 213.449 317.344 M 57.921 319.249 C 57.623 321.399, 57.776 322.624, 58.279 322.121 C 58.762 321.638, 58.995 319.951, 58.798 318.372 C 58.468 315.728, 58.399 315.798, 57.921 319.249 M 57.328 332.500 C 57.333 336.350, 57.513 337.802, 57.730 335.728 C 57.946 333.653, 57.943 330.503, 57.722 328.728 C 57.501 326.952, 57.324 328.650, 57.328 332.500 M 372.736 369.574 C 371.818 372.050, 371.469 373.828, 371.961 373.524 C 372.990 372.888, 375.397 366.064, 374.802 365.469 C 374.584 365.250, 373.654 367.098, 372.736 369.574 M 367.229 380.572 C 365.993 382.457, 365.180 384, 365.423 384 C 366.118 384, 370.261 377.927, 369.847 377.514 C 369.643 377.310, 368.465 378.686, 367.229 380.572 M 363.021 396.583 C 363.032 397.087, 365.103 399.750, 367.622 402.500 L 372.203 407.500 367.900 402 C 365.533 398.975, 363.462 396.313, 363.298 396.083 C 363.134 395.854, 363.009 396.079, 363.021 396.583 M 374 410.500 C 375.292 411.875, 376.574 413, 376.849 413 C 377.124 413, 376.292 411.875, 375 410.500 C 373.708 409.125, 372.426 408, 372.151 408 C 371.876 408, 372.708 409.125, 374 410.500 M 60.580 416.781 L 58.661 419.500 61.330 417.076 C 64.136 414.528, 64.481 413.980, 63.250 414.031 C 62.837 414.049, 61.636 415.286, 60.580 416.781 M 387.652 427.063 C 390.869 431.522, 395.068 436.265, 395.455 435.876 C 395.660 435.669, 393.573 433.025, 390.816 430 C 388.059 426.975, 386.635 425.653, 387.652 427.063 M 50.924 428.750 L 48.500 431.500 51.250 429.076 C 52.763 427.742, 54 426.505, 54 426.326 C 54 425.541, 53.190 426.180, 50.924 428.750 M 115.152 428.485 C 115.914 429.248, 124.934 429.400, 125.671 428.662 C 126.035 428.298, 123.708 428, 120.500 428 C 117.292 428, 114.885 428.218, 115.152 428.485 M 319 430 C 320.925 431.054, 322.950 431.919, 323.500 431.923 C 324.050 431.926, 323.400 431.320, 322.056 430.575 C 319.793 429.322, 319.755 429.185, 321.556 428.727 C 322.625 428.455, 321.700 428.199, 319.500 428.158 L 315.500 428.084 319 430 M 100.750 429.706 C 101.987 429.944, 104.013 429.944, 105.250 429.706 C 106.487 429.467, 105.475 429.272, 103 429.272 C 100.525 429.272, 99.513 429.467, 100.750 429.706 M 328.269 429.693 C 329.242 429.947, 330.592 429.930, 331.269 429.656 C 331.946 429.382, 331.150 429.175, 329.500 429.195 C 327.850 429.215, 327.296 429.439, 328.269 429.693 M 67 431.495 C 57.925 432.170, 49.825 432.494, 49 432.214 C 47.962 431.862, 47.808 432.040, 48.500 432.790 C 49.544 433.921, 73.775 432.785, 85 431.078 C 92.851 429.884, 86.731 430.026, 67 431.495 M 340.214 430.950 C 341.707 431.422, 347.332 432.050, 352.714 432.346 C 361.096 432.807, 361.567 432.758, 356 432.009 C 344.876 430.512, 337.196 429.997, 340.214 430.950 M 111 434 C 109.075 435.054, 107.950 435.916, 108.500 435.916 C 109.050 435.916, 111.075 435.054, 113 434 C 114.925 432.946, 116.050 432.084, 115.500 432.084 C 114.950 432.084, 112.925 432.946, 111 434 M 325.135 432.468 C 325.975 433.308, 333 436.040, 333 435.527 C 333 435.252, 331.370 434.346, 329.378 433.513 C 325.688 431.972, 324.295 431.629, 325.135 432.468 M 364.762 433.707 C 366.006 433.946, 367.806 433.937, 368.762 433.687 C 369.718 433.437, 368.700 433.241, 366.500 433.252 C 364.300 433.263, 363.518 433.468, 364.762 433.707 M 375.269 434.693 C 376.242 434.947, 377.592 434.930, 378.269 434.656 C 378.946 434.382, 378.150 434.175, 376.500 434.195 C 374.850 434.215, 374.296 434.439, 375.269 434.693 M 386.269 435.693 C 387.242 435.947, 388.592 435.930, 389.269 435.656 C 389.946 435.382, 389.150 435.175, 387.500 435.195 C 385.850 435.215, 385.296 435.439, 386.269 435.693 M 339.500 439.037 C 342.800 440.612, 345.950 441.885, 346.500 441.865 C 347.050 441.845, 344.800 440.539, 341.500 438.963 C 338.200 437.388, 335.050 436.115, 334.500 436.135 C 333.950 436.155, 336.200 437.461, 339.500 439.037 M 98.441 439.555 C 96.611 441.022, 96.643 441.042, 99 439.920 C 102.061 438.462, 102.628 438, 101.358 438 C 100.821 438, 99.509 438.700, 98.441 439.555 M 88.223 444.177 C 87.321 445.079, 87.915 445.888, 90.773 447.646 C 92.823 448.906, 94.950 449.944, 95.500 449.952 C 96.050 449.960, 94.925 448.991, 93 447.798 C 88.258 444.860, 88.373 445.008, 90.029 443.961 C 90.838 443.449, 91.028 443.024, 90.450 443.015 C 89.873 443.007, 88.870 443.530, 88.223 444.177 M 341.292 451.336 C 337.328 453.671, 333.728 455.973, 333.292 456.450 C 332.370 457.460, 348.036 449.126, 349.450 447.854 C 351.750 445.786, 347.988 447.392, 341.292 451.336 M 101.503 453.005 C 102.173 454.089, 108 457.335, 108 456.624 C 108 456.390, 106.398 455.252, 104.440 454.097 C 102.482 452.942, 101.160 452.451, 101.503 453.005 M 109 457.294 C 109 457.521, 112.150 459.801, 116 462.361 C 119.850 464.921, 123 466.804, 123 466.545 C 123 466.286, 120.412 464.336, 117.250 462.211 C 110.247 457.506, 109 456.763, 109 457.294 M 327.750 459.573 C 325.688 460.924, 324 462.232, 324 462.481 C 324 463.143, 330.908 458.957, 331.562 457.899 C 332.339 456.642, 331.996 456.793, 327.750 459.573 M 318.732 465.536 C 316.679 466.931, 315 468.266, 315 468.502 C 315 469.149, 321.921 464.936, 322.562 463.899 C 323.418 462.515, 322.772 462.791, 318.732 465.536 M 127 469.342 C 127 469.601, 129.356 471.542, 132.235 473.656 C 138.908 478.555, 140.430 479.506, 139.691 478.309 C 138.974 477.148, 127 468.688, 127 469.342 M 308 473.105 C 302.276 477.285, 299.243 479.992, 302 478.460 C 304.206 477.234, 314 469.823, 314 469.380 C 314 468.754, 313.721 468.928, 308 473.105 M 294.234 483.385 C 286.501 489.622, 285.528 491.058, 292.706 485.637 C 297.928 481.694, 301.067 478.790, 299.809 479.068 C 299.639 479.106, 297.130 481.048, 294.234 483.385 M 145 482.928 C 146.925 484.644, 149.850 486.972, 151.500 488.102 C 154.089 489.876, 154.020 489.725, 151 487.006 C 149.075 485.272, 146.150 482.944, 144.500 481.832 C 141.901 480.080, 141.968 480.227, 145 482.928 M 155 490.260 C 155 490.506, 159.387 494.408, 164.750 498.931 C 170.113 503.454, 172.399 505.167, 169.831 502.738 C 164.062 497.281, 155 489.657, 155 490.260 M 279.500 495.595 C 273.838 500.871, 273.787 500.957, 278.602 497.124 C 283.318 493.369, 286.760 489.998, 285.872 490.002 C 285.668 490.003, 282.800 492.520, 279.500 495.595 M 269.924 503.750 L 267.500 506.500 270.250 504.076 C 271.762 502.742, 273 501.505, 273 501.326 C 273 500.541, 272.190 501.180, 269.924 503.750 M 175 507.166 C 175 507.777, 201.096 534, 201.704 534 C 202.450 534, 201.190 532.663, 188.500 520 C 181.075 512.590, 175 506.815, 175 507.166 M 252.575 520.193 L 239.500 533.385 252.500 521 C 259.650 514.187, 265.928 508.251, 266.450 507.807 C 266.972 507.363, 267.006 507, 266.525 507 C 266.044 507, 259.767 512.937, 252.575 520.193 M 204 537.500 C 205.292 538.875, 206.574 540, 206.849 540 C 207.124 540, 206.292 538.875, 205 537.500 C 203.708 536.125, 202.426 535, 202.151 535 C 201.876 535, 202.708 536.125, 204 537.500 M 235.924 537.750 L 233.500 540.500 236.250 538.076 C 237.762 536.742, 239 535.505, 239 535.326 C 239 534.541, 238.190 535.180, 235.924 537.750 M 209.437 544.329 C 210.977 546.348, 212.440 548, 212.687 548 C 213.381 548, 209.052 542.150, 207.772 541.359 C 207.148 540.973, 207.897 542.310, 209.437 544.329 M 231.807 542.750 C 229.899 544.972, 228.737 547, 229.373 547 C 229.643 547, 230.825 545.650, 232 544 C 234.330 540.728, 234.210 539.952, 231.807 542.750" stroke="none" fill="#f6f6f6" fill-rule="evenodd"/><path d="M 205.660 37.982 C 196.964 39.559, 186.650 43.108, 178.536 47.316 C 145.646 64.371, 116.410 103.707, 99.988 153 C 77.904 219.292, 68.435 253.135, 63.059 285 C 59.617 305.403, 58.888 312.181, 58.222 330 C 56.934 364.470, 57.418 370.993, 62.820 392 C 67.841 411.519, 68.259 408.957, 58.082 421 C 53.202 426.775, 49.499 431.787, 49.854 432.139 C 50.209 432.490, 62.200 431.975, 76.500 430.993 C 90.800 430.012, 107.900 428.917, 114.500 428.560 L 126.500 427.911 118.500 431.500 C 114.100 433.474, 105.663 437.159, 99.750 439.687 C 93.838 442.216, 89 444.565, 89 444.907 C 89 445.249, 92.703 447.547, 97.228 450.014 C 113.928 459.119, 140.832 478.148, 162.526 496.200 C 182.804 513.074, 213 544.494, 213 548.721 C 213 549.479, 213.687 551.427, 214.526 553.050 C 215.857 555.623, 216.601 556, 220.355 556 C 224.572 556, 224.707 555.895, 227.079 550.753 C 234.204 535.309, 271.970 499.178, 308.500 472.858 C 323.613 461.969, 343.448 449.569, 351 446.290 C 353.818 445.066, 356.226 446.366, 328.646 434.227 C 321.576 431.115, 316.217 428.428, 316.737 428.254 C 317.579 427.974, 340.786 430.263, 379.946 434.490 C 387.341 435.288, 393.578 435.756, 393.804 435.529 C 394.236 435.097, 393.553 434.234, 374.674 411.350 C 364.879 399.479, 363.002 396.661, 363.015 393.850 C 363.034 389.697, 364.728 384.863, 368.224 378.989 C 375.400 366.935, 378 354.349, 378 331.672 C 378 304.403, 372.101 269.655, 360.420 228.122 C 357.177 216.593, 353.973 206.494, 337.377 155.500 C 331.149 136.365, 319.717 111.911, 310.261 97.500 C 290.018 66.650, 265.903 47.130, 239.100 39.898 C 230.555 37.593, 213.268 36.603, 205.660 37.982 M 217.500 173.937 C 190.075 180.582, 156.415 224.115, 117.707 303 C 105.865 327.134, 101.839 335.987, 92.011 359.500 C 85.023 376.220, 82.866 382.863, 83.192 386.658 L 83.500 390.250 94.922 376.476 L 106.343 362.702 111.117 348.101 C 119.950 321.087, 128.678 300.599, 141.191 277.500 C 173.678 217.532, 202.765 183.487, 221.500 183.505 C 229.174 183.512, 235.083 187.039, 246.580 198.474 C 258.013 209.846, 266.909 221.918, 280.656 244.713 C 290.735 261.428, 313.183 306.068, 322.034 327 C 324.942 333.875, 327.867 340.175, 328.535 341 C 329.204 341.825, 330.471 346.459, 331.352 351.298 C 332.233 356.136, 333.526 360.879, 334.227 361.837 C 334.927 362.794, 337.965 366.626, 340.979 370.350 L 346.457 377.123 347.258 374.311 C 348.558 369.746, 347.228 364.015, 341.584 349.858 C 324.338 306.606, 302.149 261.294, 284.241 232.758 C 272.075 213.372, 264.682 203.659, 253.513 192.385 C 244.349 183.137, 241.240 180.672, 235 177.708 C 226.824 173.826, 222.132 172.815, 217.500 173.937 M 216.369 237.250 C 208.679 248.889, 203.097 256.054, 196.699 262.500 C 185.587 273.695, 174.623 289.859, 172.890 297.600 C 171.726 302.801, 171.846 303.643, 175.405 315.281 C 183.676 342.323, 188.037 351.750, 194.361 356.261 C 197.337 358.384, 198.566 358.512, 218 358.730 C 229.275 358.857, 240.604 359.080, 243.175 359.225 C 246.968 359.439, 248.338 359.031, 250.433 357.063 C 254.670 353.082, 270.856 328.205, 275.737 318.170 L 280.279 308.835 279.741 298.667 C 279.175 287.970, 276.768 279.518, 272.883 274.579 C 270.531 271.589, 263.532 266.597, 260.250 265.570 C 258.260 264.947, 258 265.212, 258 267.868 C 258 274.653, 253.046 281.526, 247.390 282.587 C 242.706 283.465, 237.244 281.372, 235.520 278.038 C 233.976 275.053, 232.177 274, 228.618 274 C 227.398 274, 225.860 273.460, 225.200 272.800 C 223.900 271.500, 223.567 261.210, 224.765 259.376 C 225.184 258.736, 228.024 258.293, 231.363 258.346 C 239.682 258.478, 241.058 256.623, 240.563 245.941 C 240.276 239.730, 239.554 236.666, 237.224 231.759 C 234.023 225.021, 230.768 221, 228.514 221 C 227.740 221, 222.275 228.313, 216.369 237.250 M 210.187 264.863 C 208.334 266.038, 208.387 271.816, 210.269 273.697 C 211.187 274.616, 212.560 274.999, 213.559 274.616 C 215.147 274.006, 215.153 273.827, 213.636 272.150 C 211.495 269.785, 211.571 269, 213.941 269 C 216.494 269, 217.476 267.279, 215.964 265.456 C 214.623 263.841, 212.193 263.591, 210.187 264.863 M 211.479 298.022 C 209.886 299.685, 205.924 302.014, 202.673 303.199 C 197.228 305.185, 196.910 305.464, 198.632 306.754 C 200.046 307.813, 202.203 307.987, 207.500 307.468 C 216.572 306.579, 233.605 306.591, 242.544 307.492 C 248.223 308.065, 249.829 307.911, 250.837 306.696 C 251.905 305.410, 251.331 304.939, 246.908 303.469 C 244.059 302.523, 239.953 300.145, 237.784 298.185 C 234.031 294.795, 233.685 294.685, 230.670 295.912 C 225.258 298.115, 223.361 298.238, 220.178 296.592 C 215.903 294.382, 214.792 294.564, 211.479 298.022 M 213.449 317.344 C 214.852 319.184, 216 321.209, 216 321.844 C 216 323.171, 215.643 323.130, 227.461 323.187 C 233.041 323.215, 236.559 322.823, 236.784 322.149 C 236.982 321.553, 238.224 319.476, 239.542 317.533 L 241.940 314 226.419 314 L 210.898 314 213.449 317.344" stroke="none" fill="#3a3835" fill-rule="evenodd"/></svg>